<?xml version="1.0" encoding="utf-8"?>
<!--Designed by Vexels.com - 2018 All Rights Reserved - https://vexels.com/terms-and-conditions/-->
<svg version="1.1" id="Layer_1" xmlns="http://www.w3.org/2000/svg" xmlns:xlink="http://www.w3.org/1999/xlink" x="0px" y="0px"
	 viewBox="0 0 1200 1200" enable-background="new 0 0 1200 1200" xml:space="preserve">
<path fill="#242424" d="M1116.735,495.412c1.352-33.098-0.343-66.378-5.314-99.367c-11.107-73.712-41.442-138.416-98.92-186.996
	c-52.823-44.646-118.381-72.474-185.208-88.412c-15.737-3.753-31.631-6.807-47.618-9.25
	c-40.083-13.344-83.088-18.589-125.467-18.414c-79.585,0.328-159.516,16.099-234.207,43.223
	c-65.057,23.625-128.143,56.465-179.264,103.733c-43.908,40.598-74.052,90.608-88.25,147.214
	c-15.099,16.615-28.923,34.483-41.229,53.614c-9.435,14.015-17.791,28.948-24.903,44.852c-0.159,0.334-0.33,0.658-0.488,0.992
	c-28.405,60.413-41.826,128.404-33.36,194.943c6.592,51.799,26.767,100.093,53.618,144.463c23.711,48.285,55.272,92.65,92.688,130
	c27.674,27.625,59.047,51.822,93.273,70.755c59.588,42.087,126.907,71.756,200.415,78.7c98.871,9.34,193.02-23.756,272.387-79.473
	c132.994-18.233,258.525-85.224,331.748-200.535C1160.771,724.457,1166.627,599.964,1116.735,495.412z M867.795,142.253
	c59.683,20.047,117.421,51.722,160.417,98.415c46.769,50.791,66.654,115.89,73.504,183.449c1.607,15.851,2.44,31.755,2.577,47.654
	c-9.238-16.01-19.843-31.448-31.851-46.122c-19.346-23.643-41.055-45.493-64.538-65.58c-0.624-1.48-1.198-2.978-1.842-4.452
	c-14.213-32.558-32.796-63.011-54.83-90.74c-7.186-12.589-15.028-24.867-23.692-36.51c-17.425-27.367-38.902-52.074-64.968-72.812
	c-12.953-10.305-26.726-19.118-41.118-26.598C837.063,132.727,852.533,137.127,867.795,142.253z M1036.424,589.655
	c0.625,37.621-4.244,75.446-14.913,111.518c4.315-20.597,6.951-41.637,7.709-62.94c0.31-8.696,0.3-17.381-0.012-26.039
	c2.707-14.107,4.829-28.285,6.329-42.503C1035.986,576.316,1036.312,582.966,1036.424,589.655z M303.63,1020.834
	c-24.206-17.044-47.029-36.096-68.368-56.369c-43.731-41.547-83.966-88.924-115.482-140.74
	c-42.343-85.151-60.501-183.337-40.9-275.996c4.553-21.527,11.042-41.635,19.234-60.373c8.034-17.125,17.322-33.665,27.667-49.492
	c6.795-9.803,14.134-19.122,21.975-27.96c-1.039,6.092-1.968,12.225-2.649,18.45c-1.154,10.53-1.883,21.103-2.281,31.691
	c-1.452,10.53-2.295,21.212-2.608,32.002c-4.922,20.531-7.646,41.921-8.194,64.016c-0.998,40.245,2.446,81.051,10.831,120.732
	c2.617,14.453,5.98,28.752,10.124,42.819c16.151,89.096,58.743,172.957,135.421,223.805c11.218,7.439,22.945,14.283,35.039,20.617
	c43.797,45.274,98.973,80.674,160.317,95.868c-52.4,3.99-104.715-4.157-153.822-26.004
	C320.974,1029.915,312.218,1025.524,303.63,1020.834z M773.936,119.594c26.099,9.123,50.218,22.015,71.944,38.211
	c-18.537-9.702-38.235-17.254-58.285-23.237c-9.076-2.708-18.252-5.145-27.494-7.373c-14.168-5.134-28.604-9.537-43.266-13.089
	c-0.786-0.19-1.579-0.348-2.365-0.534C734.381,114.569,754.233,116.579,773.936,119.594z M722.999,1010.635
	c-16.702,5.511-33.63,9.593-50.696,12.425c-0.657-0.013-1.314-0.008-1.97-0.022c-7.592-0.167-15.215-0.465-22.857-0.864
	c39.37-5.596,78.507-15.181,115.749-28.965c-11.738,7.653-23.751,14.76-35.975,21.283
	C729.186,1012.192,727.389,1009.186,722.999,1010.635z M333.401,960.115c-10.911-11.249-21.182-23.134-30.804-35.521
	c6.027,4.37,12.141,8.637,18.395,12.725c10.439,6.825,21.18,13.289,32.171,19.387c5.716,3.86,11.485,7.634,17.343,11.249
	c17.147,10.583,34.736,19.868,52.731,27.795C392.414,986.272,361.906,974.737,333.401,960.115z M613.026,118.351
	c40.853,0.233,83.871,3.346,125.455,11.816c7.78,2.495,15.502,5.214,23.145,8.2c64.69,25.272,122.943,67.114,168.103,119.937
	c1.386,2.631,2.768,5.264,4.089,7.928c-36.503-37.222-80.921-67.513-130.55-88.832c-94.696-40.677-205.2-52.064-309.113-34.443
	c35.118-11.35,71.267-19.592,107.85-24.553C605.683,118.368,609.36,118.33,613.026,118.351z M1022.075,543.457
	c-1.744-12.103-3.978-24.121-6.635-36.007c-0.272-15.08-1.174-30.134-2.663-45.119c4.349,11.92,8.114,24.074,11.3,36.422
	C1024.309,513.751,1023.647,528.666,1022.075,543.457z M487.868,1008.77c14.034,3.281,28.202,5.936,42.441,7.981
	c1.66,0.346,3.326,0.663,4.987,0.998c-13.529-1.52-26.921-3.817-40.086-7.032C492.752,1010.116,490.315,1009.425,487.868,1008.77z
	 M291.943,244.501c1.71-1.228,3.468-2.367,5.203-3.552c-6.904,5.875-13.643,11.935-20.198,18.181
	c3.294-3.677,6.646-7.296,10.052-10.862C288.652,247.016,290.253,245.715,291.943,244.501z M438.094,164.12
	c7.599-2.157,15.245-4.153,22.942-5.925c141.634-32.605,304.564-11.408,421.94,78.211c24.274,18.534,46.454,39.991,65.672,63.795
	c2.508,6.582,4.818,13.248,6.987,19.966c-17.647-12.006-35.982-23.134-54.809-33.427c-25.051-21.022-52.669-39.405-82.383-54.681
	c-75.669-38.9-161.795-58.275-247.229-56.447c-64.772-4.451-132.594-0.041-194.183,19.556c16.054-9.476,32.55-18.106,49.323-25.816
	C430.247,167.564,434.164,165.828,438.094,164.12z M569.029,182.43c35.709,2.145,71.315,7.295,105.723,15.781
	c-41.188-7.553-83.532-8.421-125.022-2.815c-44.207-0.348-88.522,3.847-130.877,14.209c19.456-6.963,39.401-12.575,59.547-16.825
	C508.159,186.5,538.546,183.098,569.029,182.43z M894.28,348.5c36.246,51.252,63.65,109.811,78.098,170.621
	c0.86,3.621,1.619,7.245,2.37,10.87c-0.749,7.015-1.645,13.993-2.64,20.936c-5.755-23.46-13.987-46.407-24.993-68.498
	c-28.369-56.941-71.225-105.83-122.572-143.2c-54.125-39.392-116.255-62.573-181.139-73.632
	c-13.749-4.476-27.653-8.447-41.671-11.851c-45.538-11.058-92.595-16.939-138.9-13.336c10.82-1.559,21.663-2.863,32.507-3.849
	C634.031,223.957,789.48,250.532,894.28,348.5z M905.365,848.074c-0.587,0.463-1.157,0.946-1.746,1.404
	c1.997-2.728,3.966-5.482,5.921-8.251c-1.039,1.81-2.121,3.598-3.189,5.394C906.029,847.11,905.689,847.586,905.365,848.074z
	 M553.407,966.569c-69.149-15.739-135.093-46.298-191.308-88.981c37.665,23.313,78.715,41.107,121.731,51.971
	c76.792,19.395,159.432,17.448,237.007,3.518c28.07-5.04,55.774-12.316,82.374-21.915c-14.094,12.047-28.656,23.616-43.648,34.611
	C693.24,966.671,622.652,973.52,553.407,966.569z M743.156,957.434c-8.88,6.14-17.888,12.085-27.03,17.805
	c-35.012,4.397-70.469,4.53-105.576,0.824C655.333,975.429,700.032,969.23,743.156,957.434z M215.729,760.033
	c1.259,4.734,2.65,9.406,4.118,14.039c-0.674-1.096-1.352-2.191-2.016-3.293c-9.826-25.837-18.025-52.407-24.317-79.368
	c4.138,8.312,8.51,16.503,13.116,24.556C208.895,730.858,211.886,745.583,215.729,760.033z M811.515,367.9
	c3.587,3.075,7.138,6.192,10.627,9.378c72.655,66.341,121.68,159.051,131.65,256.404
	c-38.646,124.778-128.532,234.534-258.111,270.734c-143.783,40.168-290.243-39.263-396.259-131.572
	c-31.472-27.403-60.116-58.431-83.537-92.311c-5.671-73.901,1.944-152.072,25.745-222.298
	c21.579-63.671,59.734-119.618,108.804-163.032c127.534-31.837,273.76-18.681,381.379,27.985
	C759.842,335.344,786.671,350.258,811.515,367.9z M966.178,583.99c0.03,0.204,0.056,0.408,0.086,0.611
	c-1.135,5.572-2.318,11.12-3.605,16.611c-0.605,2.581-1.274,5.149-1.922,7.721c-8.735-53.174-28.862-103.872-57.779-149.361
	C929.717,497.307,950.971,539.994,966.178,583.99z M964.393,638.211c1.856-5.786,3.63-11.601,5.284-17.457
	c1.173,28.922-1.161,58-6.168,86.653c0.077-0.71,0.191-1.411,0.265-2.121C966.097,682.722,966.232,660.303,964.393,638.211z
	 M287.336,320.788c14.231-7.844,28.994-14.565,44.122-20.379c-62.465,60.159-104.575,140.527-120.139,229.044
	c-7.338,41.735-11.232,85.378-9.877,128.651c-6.552-10.925-12.531-22.113-17.893-33.538c-0.837-2.82-1.627-5.65-2.402-8.483
	c-4.738-50.015-2.428-100.167,8.546-148.219c2.061-9.028,4.451-17.984,7.13-26.851C218.842,395.121,249.402,353.668,287.336,320.788
	z M172.035,509.637c-1.607,12.589-2.586,25.216-3.108,37.853c-0.67-8.371-1.01-16.761-1.054-25.155
	c1.532-6.319,3.214-12.602,5.043-18.847C172.623,505.538,172.296,507.584,172.035,509.637z M216.033,390.485
	c4.952-10.682,10.401-21.12,16.361-31.254c7.681-6.766,15.741-13.158,24.144-19.14C241.595,355.631,228.076,372.519,216.033,390.485
	z M185.55,444.747c-5.764,12.423-10.914,25.16-15.454,38.141c3.01-25.517,8.985-49.982,17.497-73.299
	c6.965-10.177,14.676-19.86,23.041-29.01C200.392,401.148,192.02,422.662,185.55,444.747z M162.967,614.238
	c3.731,12.394,7.919,24.652,12.618,36.714c3.691,22.422,8.754,44.631,14.918,66.494c-2.087-4.887-4.118-9.802-6.024-14.779
	c-12.182-31.807-20.722-65.032-25.593-98.805C160.184,607.345,161.55,610.802,162.967,614.238z M251.227,760.955
	c-3.692-4.884-7.242-9.869-10.729-14.896c-7.661-11.785-14.841-23.889-21.491-36.26c-0.134-0.948-0.235-1.901-0.362-2.849
	c42.816,53.677,98.311,98.912,154.093,134.842c63.988,41.216,135.783,74.338,212.459,80.904
	c67.275,5.76,134.435-11.216,192.889-44.459c85.122-48.41,143.799-126.21,177.514-214.901c0.515,26.565-1.905,53.307-7.667,79.8
	c-0.26,1.193-0.58,2.37-0.853,3.56c-15.568,24.68-32.901,48.358-51.505,70.778c-23.234,28.001-48.939,54.847-76.645,79.871
	c-60.854,24.586-128.754,35.48-192.439,37.538c-77.259,2.497-153.688-10.784-222.846-46.119
	C344.039,858.307,291.593,814.353,251.227,760.955z M928.959,791.274c1.327-1.768,2.621-3.566,3.932-5.347
	c-15.078,28.059-32.666,54.998-52.498,79.944c-11.41,7.321-23.314,13.945-35.592,19.951
	C875.523,856.564,903.757,824.854,928.959,791.274z M874.906,406.166c-23.297-23.73-49.591-44.097-77.873-61.275
	c-1.05-0.794-2.077-1.616-3.134-2.401c-29.906-22.213-62.403-40.914-96.475-56.122c2.281,0.704,4.575,1.365,6.844,2.114
	c59.173,19.535,113.745,53.469,157.925,97.357c28.701,28.511,53.163,61.422,71.496,97.453
	C917,455.321,897.495,429.174,874.906,406.166z M646.812,274.709c28.122,9.733,55.551,21.778,81.725,36.096
	c-6.89-2.768-13.833-5.405-20.834-7.867c-73.807-25.953-162.311-37.353-249.894-31.426c6.965-0.746,13.929-1.422,20.884-1.962
	c54.649-4.244,111.189-4.831,165.73,4.346C645.22,274.169,646.019,274.435,646.812,274.709z M404.972,271.755
	c-12.362,2.422-24.654,5.335-36.815,8.713c10.234-8.019,20.87-15.518,31.871-22.463c6.301-1.914,12.671-3.699,19.176-5.212
	c57.941-13.482,119.554-7.823,177.657,6.906C532.732,254.331,467.164,259.571,404.972,271.755z M345.594,287.391
	c-7.194,2.411-14.322,4.996-21.366,7.787c-1.984,0.596-3.948,1.235-5.922,1.852c15.154-10.227,31.228-19.187,48.202-26.65
	C359.328,275.816,352.356,281.491,345.594,287.391z M246.541,337.142c1.145-1.646,2.321-3.269,3.496-4.894
	c4.682-2.393,9.402-4.732,14.199-6.96C258.217,329.048,252.314,332.995,246.541,337.142z M225.506,353.645
	c-4.172,3.571-8.287,7.221-12.281,11.036c-0.932,0.89-1.789,1.819-2.704,2.717c4.567-7.231,9.39-14.289,14.439-21.178
	c2.803-1.701,5.619-3.385,8.474-5.019C230.701,345.293,228.064,349.444,225.506,353.645z M174.515,709.921
	c0.448,1.137,0.934,2.258,1.391,3.391c-0.354-0.808-0.691-1.623-1.039-2.434C174.752,710.558,174.63,710.241,174.515,709.921z
	 M245.504,833.276c0.318,0.321,0.648,0.631,0.967,0.951c6.809,11.672,14.424,22.821,22.798,33.412
	c-5.076-5.693-10.028-11.503-14.85-17.428C251.367,844.629,248.402,838.978,245.504,833.276z M279.148,850.699
	c-8.75-9.141-17.125-18.63-25.1-28.445c-12.339-23.274-21.39-48.19-27.677-73.924c40.926,63.982,96.312,119.227,157.896,158.762
	c27.51,17.661,57.032,32.663,87.84,44.745c-16.779-4.445-33.339-9.724-49.584-15.864
	C370.867,916.45,321.469,887.443,279.148,850.699z M827.948,901.422c13.371-5.743,26.36-12.154,38.9-19.201
	c-8.614,9.931-17.597,19.49-26.947,28.599c-1.166,1.136-2.37,2.217-3.549,3.336c-16.526,8.562-33.52,16.096-50.865,22.65
	C800.068,925.532,814.234,913.719,827.948,901.422z M862.413,899.521c6.286-6.698,12.382-13.565,18.241-20.604
	c2.763-3.319,5.496-6.684,8.203-10.082c1.229-0.808,2.471-1.598,3.689-2.42c-7.245,9.87-14.885,19.423-22.896,28.631
	C867.253,896.563,864.838,898.053,862.413,899.521z M982.274,591.049c-1.022-3.1-2.101-6.192-3.177-9.285
	c0.668-3.301,1.3-6.608,1.907-9.921C981.591,578.249,982.031,584.652,982.274,591.049z M296.748,304.288
	c-12.599,4.559-24.924,9.598-36.929,15.113c4.881-6.102,9.977-12.038,15.305-17.784c33.292-18.329,68.878-32.774,105.637-43.508
	C349.941,269.529,321.897,285.231,296.748,304.288z M253.29,314.418c-0.696,0.846-1.424,1.66-2.111,2.514
	c-2.794,3.472-5.514,6.998-8.162,10.572c-2.043,1.045-4.049,2.139-6.07,3.213c3.702-4.517,7.529-8.928,11.449-13.255
	C250.013,316.426,251.66,315.434,253.29,314.418z M452.994,967.214c-36.102-14.232-70.485-32.807-102.221-55.079
	c37.425,20.674,77.475,36.544,118.255,47.094c21.517,5.567,43.416,9.757,65.51,12.579c53.844,13.574,109.937,18.491,164.927,13.526
	c-6.174,3.623-12.4,7.145-18.677,10.56c-10.42,1.09-20.86,1.86-31.266,2.262c-34.493,1.333-70.754-0.155-106.999-5.023
	C511.858,987.357,481.754,978.552,452.994,967.214z M399.496,953.053c-33.621-15.507-64.69-35.395-91.314-60.3
	C336.254,916.111,366.98,936.331,399.496,953.053z M717.991,983.276c5.431-0.716,10.848-1.515,16.245-2.429
	c-9.263,3.698-18.714,6.959-28.38,9.66C709.924,988.138,713.969,985.725,717.991,983.276z M735.328,972.346
	c11.028-7.15,21.867-14.599,32.505-22.335c17.057-5.604,33.807-12.113,50.159-19.528c-16.323,13.531-33.665,25.469-51.97,35.455
	C755.857,968.455,745.62,970.585,735.328,972.346z M844.585,917.435c2.97-1.573,5.92-3.184,8.858-4.82
	c-1.93,1.971-3.843,3.959-5.814,5.888c-13.735,13.446-28.561,25.442-44.224,36.069c-3.127,1.137-6.261,2.25-9.42,3.3
	C811.976,945.953,828.863,932.326,844.585,917.435z M1003.841,533.687c-0.815,32.263-4.363,64.493-10.45,96.221
	c-0.13-0.55-0.266-1.099-0.398-1.649c2.083-31.592-0.327-63.388-6.347-94.57c0.922-8.219,1.69-16.453,2.246-24.694
	c0.419-6.19,0.711-12.437,0.935-18.708C995.343,504.474,1000.027,518.966,1003.841,533.687z M1012.491,577.08
	c0.621,4.471,1.153,8.954,1.614,13.446c-2.077,9.04-4.453,18.019-7.117,26.932C1009.279,604.07,1011.113,590.597,1012.491,577.08z
	 M977.384,495.339c-3.412-11.76-7.303-23.38-11.63-34.808c-8.68-22.924-19.053-45.656-31.025-67.635
	c16.871,21.755,31.355,45.221,43.205,69.908C978.063,473.664,977.885,484.519,977.384,495.339z M841.898,294.656
	c-116.937-70.119-267.962-83.359-401.669-58.809c32.388-15.347,67.105-26.171,103.259-31.666c0.318,0,0.639-0.009,0.957-0.009
	c71.904,0.074,143.638,11.408,212.216,32.959c13.744,4.319,27.35,9.07,40.809,14.204c23.422,15.871,44.908,34.629,64.311,56.167
	C855.296,303.024,848.678,298.722,841.898,294.656z M804.937,243.115c-2.981-1.425-5.964-2.844-8.963-4.236
	c-32.742-20.218-68.638-34.64-105.97-44.585c58.829,12.978,115.292,36.38,165.356,69.639
	C838.79,256.357,821.943,249.432,804.937,243.115z M498.583,205.717c-7.86,2.132-15.668,4.466-23.384,7.08
	c-23.155,7.846-45.092,17.756-65.747,29.421c-0.724,0.168-1.458,0.32-2.181,0.49c-39.03,9.185-77.031,22.499-112.836,39.826
	c17.761-16.096,37.178-30.102,57.79-42.112C397.924,219.34,448.204,209.234,498.583,205.717z M337.896,931.72
	c-4.388-3.411-8.697-6.901-12.96-10.438c1.548,1.138,3.059,2.313,4.635,3.425c55.806,39.389,122.756,61.253,189.594,72.608
	c5.022,0.853,10.064,1.638,15.116,2.387c41.184,8.049,84.361,11.304,126.25,6.742c-2.614,1.305-5.229,2.607-7.86,3.874
	c-33.03,4.157-66.62,4.315-99.989,0.871C477.012,997.463,402.713,971.603,337.896,931.72z M676.644,1006.569
	c1.878-0.978,3.764-1.938,5.633-2.932c5.669-0.635,11.328-1.35,16.967-2.195C691.783,1003.38,684.254,1005.115,676.644,1006.569z
	 M748.5,982.987c6.278-2.805,12.471-5.777,18.531-8.996c2.596-0.649,5.181-1.335,7.764-2.033c-4.919,2.645-9.92,5.131-14.966,7.524
	C756.074,980.715,752.301,981.89,748.5,982.987z M881.366,895.786c0.557-0.364,1.127-0.708,1.683-1.074
	c1.304-0.859,2.577-1.762,3.871-2.634c-10.465,13.313-22.078,25.702-35.026,36.809C862.26,918.315,872.102,907.264,881.366,895.786z
	 M895.473,877.36c0.341-0.472,0.668-0.952,1.007-1.425c5.329-6.835,10.47-13.837,15.433-20.982
	c-3.703,6.432-7.642,12.711-11.762,18.86C898.595,875.002,897.045,876.195,895.473,877.36z M962.382,764.431
	c9.468-21.359,17.703-43.217,24.702-65.243c0.802-1.561,1.624-3.112,2.41-4.681c0.166,3.538,0.255,7.071,0.292,10.599
	c-9.129,25.012-19.903,49.937-32.167,74.414C959.288,774.513,960.884,769.486,962.382,764.431z M1000.644,670.809
	c0.625-1.416,1.275-2.82,1.887-4.241c-0.559,1.885-1.137,3.77-1.715,5.656C1000.762,671.752,1000.7,671.281,1000.644,670.809z
	 M976.757,432.701c-20.539-35.463-46.556-67.746-77.083-95.216c-16.181-22.13-34.257-42.717-54.173-61.018
	c41.671,24.949,78.294,55.87,104.785,99.537c9.61,15.841,18.281,32.667,25.964,50.172
	C976.426,428.35,976.609,430.523,976.757,432.701z M903.956,302.321c-0.003-0.003-0.006-0.004-0.009-0.007
	c0.783,0.458,1.558,0.93,2.34,1.392c24.308,22.271,45.682,47.262,63.739,74.347c0.544,3.017,1.057,6.04,1.543,9.069
	C954.096,354.949,931.939,325.604,903.956,302.321z M941.982,326.241c2.596,1.749,5.194,3.492,7.766,5.275
	c3.917,2.716,7.815,5.476,11.692,8.276c1.253,4.632,2.433,9.287,3.538,13.966C957.726,344.269,950.047,335.095,941.982,326.241z
	 M483.737,182.838c6.087-0.423,12.205-0.733,18.334-0.99c-27.248,4.354-54.114,10.936-80.207,19.883
	c-21.803,7.476-43.052,16.693-63.347,27.609c-33.345,13.997-64.613,32.829-92.572,57.47c-5.045,4.446-9.919,9.059-14.688,13.769
	c28.008-33.638,61.538-63.133,98.198-87.939C391.818,194.867,438.025,186.013,483.737,182.838z M999.987,452.59
	c-3.546-10.377-7.495-20.666-11.796-30.817c-0.477-5.611-1.051-11.22-1.705-16.826c3.078,5.509,5.999,11.103,8.81,16.752
	C997.17,431.946,998.725,442.248,999.987,452.59z M982.812,379.033c-1.463-8.705-3.143-17.373-5.073-25.978
	c3.684,11.057,6.953,22.232,9.842,33.497C986.017,384.029,984.43,381.521,982.812,379.033z M886.794,199.508
	c-16.633-13.642-34.273-26.052-52.728-37.102c1.11,0.565,2.247,1.08,3.348,1.658C855.751,173.697,872.132,185.719,886.794,199.508z
	 M436.44,155.979c-21.989,6.23-43.472,13.818-64.197,22.811c30.568-18.984,63.409-34.266,97.57-45.494
	c22.9-5.191,46.17-8.958,69.529-11.39C504.13,130.319,469.655,141.733,436.44,155.979z M369.942,189.371
	c-11.421,6.679-22.622,13.83-33.556,21.415c-7.559,3.473-14.972,7.235-22.229,11.282c2.575-2.282,5.197-4.511,7.825-6.731
	C337.352,205.718,353.385,197.047,369.942,189.371z M185.263,796.44c12.666,22.327,27.82,42.959,44.87,61.9
	c13.151,15.28,27.487,29.531,42.799,42.767c10.095,15.103,21.034,29.604,32.801,43.412c-8.157-5.082-16.089-10.465-23.721-16.211
	c-45.942-34.586-78.091-82.105-98.537-135.185C184.082,794.224,184.642,795.346,185.263,796.44z M590.423,1027.539
	c1.751-0.081,3.509-0.21,5.261-0.306c2.671,0.303,5.342,0.591,8.013,0.864c-5.355-0.063-10.711-0.228-16.066-0.484
	C588.564,1027.576,589.488,1027.582,590.423,1027.539z M948.836,818.495c11.804-12.755,22.473-26.615,31.897-41.543
	c-2.167,7.829-4.744,15.566-7.741,23.195c-12.576,17.245-26.821,33.198-42.366,47.834
	C936.89,838.317,942.967,828.484,948.836,818.495z M1007.287,422.295c-2.185-12.409-4.794-24.737-7.876-36.949
	c1.31,3.197,2.603,6.401,3.81,9.643c6.101,16.387,10.803,33.138,14.274,50.11C1014.328,437.377,1010.924,429.774,1007.287,422.295z
	 M596.45,110.968c-5.392,0.153-10.774,0.369-16.149,0.647c5.974-0.415,11.952-0.733,17.935-0.905
	C597.641,110.795,597.045,110.882,596.45,110.968z M394.042,156.706c-26.943,14.148-52.496,30.868-76.077,50.007
	c-0.546,0.444-1.075,0.908-1.62,1.354c-21.766,13.588-42.312,29.236-61.18,46.636c33.667-38.59,74.884-69.756,122.606-91.132
	C383.14,161.166,388.575,158.9,394.042,156.706z M206.907,325.76c-2.087,3.367-4.151,6.75-6.132,10.189
	c0.552-1.093,1.119-2.178,1.68-3.266C203.913,330.355,205.395,328.047,206.907,325.76z M443.937,1038.247
	c-34.256-14.926-65.165-35.852-92.589-60.77c47.24,20.908,98.519,35.02,147.548,45.192c31.945,6.627,64.434,10.802,96.878,11.554
	c-17.923,6.447-36.102,11.998-54.494,16.5c-11.102,2.717-22.255,4.839-33.424,6.48
	C486.131,1053.531,464.709,1047.298,443.937,1038.247z M581.754,1047.123c11.753-3.959,23.387-8.289,34.908-12.922
	c12.871-0.309,25.716-1.153,38.495-2.685c12.159,0.361,24.287,0.381,36.365,0.113c-10.115,4.318-20.305,8.277-30.545,11.753
	c-41.34,14.033-84.56,20.214-127.146,16.99C549.999,1056.85,566.013,1052.426,581.754,1047.123z M701.401,1022.898
	c7.355-1.869,14.679-3.943,21.952-6.319c-3.928,2.049-7.876,4.034-11.841,5.96C708.144,1022.695,704.773,1022.8,701.401,1022.898z
	 M789.449,982.667c8.467-3.692,16.817-7.601,25.012-11.762c2.373-1.205,4.705-2.479,7.049-3.732
	c-19.15,18.541-39.342,35.649-60.466,50.961c-11.374,1.506-22.809,2.665-34.281,3.491
	C748.343,1010.303,769.374,997.259,789.449,982.667z M885.169,911.269c10.109-12.747,19.942-25.933,29.437-39.504
	c12.763-10.236,24.863-21.258,36.2-32.986c-10.612,15.806-22.344,30.853-35.176,44.902c-4.867,5.328-9.919,10.434-15.068,15.419
	C895.568,903.327,890.439,907.389,885.169,911.269z M711.124,104.857c-15.569-0.597-31.164-0.586-46.745-0.016
	c-16.095-1.826-32.283-2.721-48.48-2.783C647.751,99.934,679.768,100.485,711.124,104.857z M273.883,222.538
	c-31.471,29.126-57.813,63.845-78.264,101.563c-9.494,14.235-17.948,29.1-25.233,44.509c-0.409,0.399-0.832,0.783-1.239,1.183
	c3.037-9.956,6.596-19.741,10.763-29.286C200.583,293.15,233.773,254.251,273.883,222.538z M406.556,1075.925
	c-15.026-5.583-29.66-12.104-43.92-19.371c0.801,0.238,1.591,0.507,2.395,0.74c47.324,13.664,96.205,15.06,144.119,7.667
	c67.008,10.115,135.523-4.483,196.513-32.861c0.701-0.327,1.396-0.681,2.097-1.011c13.054-0.597,26.024-1.577,38.886-2.917
	C647.822,1094.675,530.232,1121.877,406.556,1075.925z M1051.416,869.312c-70.471,82.027-167.974,128.755-271.928,146.063
	c26.895-20.286,51.913-43.159,74.67-67.779c17.677-11.816,34.32-25.031,49.792-39.461c28.998-23.339,53.694-51.832,71.303-84.988
	c3.727-7.018,7.018-14.143,9.937-21.35c2.837-5.398,5.538-10.867,8.122-16.393c9.153-14.216,17.241-29.162,24.063-44.823
	c26.32-60.426,34.473-127.827,26.713-193.085c-1.458-12.259-3.502-24.328-6.056-36.206c-0.062-2.899-0.099-5.798-0.219-8.696
	c-0.062-1.498-0.19-2.977-0.27-4.47c-0.836-38.275-7.618-76.333-19.998-112.76c33.605,31.001,62.991,66.389,83.843,107.252
	c0.867,1.699,1.655,3.417,2.49,5.124c-4.543,111.205-44.194,220.636-112.744,308.569c-4.828,6.193,7.354,6.964,10.483,2.951
	c64.277-82.45,103.732-182.868,113.293-286.411C1160.994,640.747,1134.564,772.53,1051.416,869.312z"/>
</svg>
