<?xml version="1.0" encoding="utf-8"?>
<!--Designed by Vexels.com - 2018 All Rights Reserved - https://vexels.com/terms-and-conditions/-->
<svg version="1.1" id="Layer_1" xmlns="http://www.w3.org/2000/svg" xmlns:xlink="http://www.w3.org/1999/xlink" x="0px" y="0px"
	 viewBox="0 0 1200 1200" enable-background="new 0 0 1200 1200" xml:space="preserve">
<g>
	<path fill="#242424" d="M126.083,613.362c-0.285-19.392-1.73-12.395-2.082-15.306C125.057,630.492,126.491,612.542,126.083,613.362
		z"/>
	<path fill="#242424" d="M227.578,935.032c-6.687-8.1-13.373-16.2-13.373-16.2s-1.052-1.002-1.977-2.103
		c-0.954-1.08-1.908-2.16-1.908-2.16s0.448,0.598,1.233,1.645c0.756,1.067,1.932,2.52,3.4,4.22
		c2.891,3.424,6.745,7.991,10.599,12.557c3.727,4.664,8.083,8.785,11.083,12.095c3.074,3.245,5.123,5.408,5.123,5.408
		s-1.782-1.922-4.454-4.806C234.666,942.772,230.985,939.021,227.578,935.032z"/>
	<path fill="#242424" d="M473.378,1080.953c-2.836-0.746-6.619-1.741-10.402-2.736c-3.776-1.001-7.552-2.002-10.385-2.752
		c-2.791-0.896-4.652-1.494-4.652-1.494s-6.551-1.683-13.102-3.366c-3.29-0.807-6.558-1.695-8.959-2.52
		c-2.421-0.765-4.035-1.275-4.035-1.275c6.369,2.281,20.821,6.59,33.458,10.221c12.767,3.14,23.663,5.853,22.83,5.073
		C478.13,1082.104,476.209,1081.742,473.378,1080.953z"/>
	<path fill="#242424" d="M1069.161,791.339c-0.911,1.713-1.517,2.855-1.517,2.855s-3.011,5.909-6.023,11.819
		c-1.482,2.972-3.027,5.911-4.274,8.063c-1.212,2.175-2.019,3.624-2.019,3.624s1.457-2.57,3.644-6.424
		c2.049-3.93,4.782-9.169,7.513-14.409c1.359-2.618,2.717-5.237,3.992-7.691c1.182-2.509,2.285-4.851,3.231-6.858
		c1.879-4.017,3.132-6.694,3.132-6.694s-2.243,4.674-4.488,9.348C1071.249,787.321,1070.102,789.646,1069.161,791.339z"/>
	<path fill="#242424" d="M1034.247,843.419c3.243-4.375,8.466-10.828,15.427-21.89c0,0-2.775,3.66-5.55,7.32
		c-2.892,3.57-5.786,7.139-5.786,7.139c-3.169,4.595-6.648,9.87-10.363,15.092C1029.222,849.758,1030.905,847.729,1034.247,843.419z
		"/>
	<path fill="#242424" d="M1052.507,814.009c-1.743,2.76-3.785,5.995-6.157,9.755c-2.32,3.794-5.128,8.011-8.417,12.728l0.405-0.503
		c5.721-8.113,9.928-15.398,13.552-20.985c1.053-1.633,1.979-3.115,2.837-4.512C1054.055,811.58,1053.329,812.737,1052.507,814.009z
		"/>
	<path fill="#242424" d="M1056.666,807.289c0.192-0.323,0.351-0.597,0.527-0.896
		C1057.015,806.695,1056.857,806.968,1056.666,807.289z"/>
	<path fill="#242424" d="M1055.741,808.825c0.315-0.523,0.64-1.054,0.925-1.535C1056.389,807.758,1056.053,808.307,1055.741,808.825
		z"/>
	<path fill="#242424" d="M1054.728,810.491c0.372-0.602,0.683-1.12,1.013-1.667C1055.413,809.366,1055.087,809.906,1054.728,810.491
		z"/>
	<path fill="#242424" d="M1057.192,806.393c0.877-1.491,1.643-2.818,2.213-3.815
		C1058.849,803.529,1058.104,804.836,1057.192,806.393z"/>
	<path fill="#242424" d="M1027.976,851.08c-1.173,1.325-1.848,2.148-2.739,3.709C1026.244,853.426,1026.986,852.422,1027.976,851.08
		z"/>
	<path fill="#242424" d="M1091.766,739.42c0.533-1.376,1.218-3.144,1.717-4.434C1092.247,737.635,1091.319,739.784,1091.766,739.42z
		"/>
	<path fill="#242424" d="M1060.833,323.237c0.832,1.193,1.511,2.255,2.319,3.502c0.276,0.204,0.484,0.329,0.815,0.61
		L1060.833,323.237z"/>
	<path fill="#242424" d="M1118.709,657.597c-0.676,2.571-1.318,5.013-1.93,7.34c-0.701,2.301-1.368,4.489-2.006,6.578
		c-1.224,4.194-2.334,7.994-3.365,11.521c-1.87,7.116-3.902,12.973-5.658,18.778c1.295-3.759,2.609-7.574,3.943-11.449
		c1.161-3.933,2.34-7.927,3.539-11.986c1.201-4.058,2.42-8.181,3.661-12.374c1.185-4.209,2.134-8.561,3.249-12.946
		C1120.34,651.29,1120.27,650.935,1118.709,657.597z"/>
	<path fill="#242424" d="M1096.621,728.519c-0.382,0.997-0.727,1.895-1.142,2.978
		C1098.453,725.169,1097.962,725.907,1096.621,728.519z"/>
	<path fill="#242424" d="M1096.621,728.519c1.949-5.124,3.711-9.688,5.209-14.041c1.363-4.401,2.641-8.528,3.922-12.663
		c-3.991,12.328-8.547,23.44-12.269,33.171C1094.587,732.595,1095.754,730.214,1096.621,728.519z"/>
	<path fill="#242424" d="M1099.972,385.287c2.425,5.352,4.688,10.347,6.627,14.629c1.962,4.273,3.58,7.839,4.397,10.461
		c0.923,2.579,1.451,4.053,1.451,4.053l-2.571-6.462l7.067,19.071c-3.865-10.928-6.639-20.525-11.184-30.45
		c-2.146-5.009-4.2-10.331-6.771-16.026c-2.678-5.642-5.658-11.769-9.36-18.493c-9.021-14.411-15.33-22.462-19.211-27.378
		c-3.88-4.923-5.575-6.55-6.448-7.342c0,0,15.276,19.734,27.479,41.641C1094.483,374.46,1097.529,379.944,1099.972,385.287z"/>
	<path fill="#242424" d="M1105.171,689.984c2.875-9.425,5.525-18.918,7.609-26.002c1.717-7.187,2.861-11.979,2.861-11.979
		s-0.686,2.413-1.718,6.032c-0.943,3.642-2.535,8.4-4.184,13.136c-1.614,4.742-3.227,9.483-4.438,13.039
		c-1.163,3.568-2.113,5.886-2.113,5.886l1.494-1.645c-7.546,21.062-10.5,29.307-11.81,32.963c-1.186,3.699-0.399,2.911-1.151,5.615
		c0,0,1.82-4.58,4.549-11.449C1098.859,708.657,1101.932,699.284,1105.171,689.984z"/>
	<path fill="#242424" d="M1076.759,615.215c-0.043-0.818-0.109-1.705-0.186-2.627
		C1076.685,614.173,1076.759,615.215,1076.759,615.215z"/>
	<path fill="#242424" d="M1075.71,604.033c-0.702-5.576-1.403-11.151-1.403-11.151c1.061,8.827,1.875,14.997,2.267,19.706
		c-0.021-0.285-0.039-0.553-0.062-0.873C1076.42,609.612,1076.083,606.82,1075.71,604.033z"/>
	<path fill="#242424" d="M1050.039,773.382l-0.94,3.941C1051.817,770.285,1052.647,767.306,1050.039,773.382z"/>
	<path fill="#242424" d="M1025.908,955.621c12.688-11.487,25.664-24.317,34.365-34.546c8.944-10.028,13.821-17.16,11.97-15.921
		c0,0-1.885,1.894-3.771,3.789c-1.845,1.92-3.849,3.7-3.849,3.7C1050.275,931.886,1037.131,944.861,1025.908,955.621z"/>
	<path fill="#242424" d="M217.773,496.394c1.147-3.622,2.62-6.931,3.806-10.146c-0.964,2.239-1.96,4.553-2.985,6.932
		c-1.012,2.383-1.833,4.924-2.793,7.466c-1.854,5.105-3.787,10.428-5.767,15.879c1.334-2.893,2.722-5.904,4.1-8.892
		C215.389,503.759,216.606,499.999,217.773,496.394z"/>
	<path fill="#242424" d="M209.133,540.883c0,0-3.104,10.382-6.207,20.763c-2.488,10.557-4.975,21.114-4.975,21.114
		c1.142-4.743,2.53-10.505,4.208-17.474C203.82,558.323,206.485,550.333,209.133,540.883z"/>
	<path fill="#242424" d="M69.702,456.057c0.695-1.909,1.377-3.785,2.047-5.624c2.659-7.349,5.107-14.113,7.277-20.108
		c0.531-1.501,1.045-2.954,1.541-4.355c0.573-1.374,1.126-2.697,1.656-3.969c1.038-2.551,1.99-4.89,2.847-6.997
		c1.662-4.233,2.832-7.578,3.392-9.883c-2.895,6.772-5.642,13.198-8.261,19.323c-2.324,6.238-4.308,12.256-6.307,17.978
		c-1.886,5.756-4.026,11.154-5.426,16.532c-1.425,5.371-2.79,10.523-4.112,15.503c1.235-4.264,2.439-8.424,3.607-12.459
		C68.553,459.986,69.132,458.005,69.702,456.057z"/>
	<path fill="#242424" d="M1092.909,680.933c0.465-3.574,0.628-6.653,0.682-9.249c0.073-2.592,0.132-4.696,0.179-6.338
		c0.05-3.283-0.032-4.717-0.231-4.517c-0.328,7.387-0.584,13.169-0.742,16.723C1092.5,681.098,1092.507,682.435,1092.909,680.933z"
		/>
	<path fill="#242424" d="M55.228,518.507c0.498-2.739,1.001-5.506,1.511-8.31c2.123-11.199,3.945-23.083,7.618-35.739
		c-4.005,12.525-6.454,26.406-9.294,40.537c-0.78,3.523-1.156,7.13-1.592,10.739c-0.414,3.611-0.829,7.233-1.243,10.857
		c-0.74,7.255-1.704,14.491-1.645,21.736c0.235-2.584,0.469-5.145,0.702-7.718c0.379-2.557,0.76-5.125,1.147-7.739
		c0.601-5.35,1.204-10.708,1.814-16.145C54.573,524.009,54.837,521.263,55.228,518.507z"/>
	<path fill="#242424" d="M243.516,410.367c-1.208,2.026-2.662,4.467-3.759,6.307C239.606,417.404,241.209,414.565,243.516,410.367z"
		/>
	<path fill="#242424" d="M605.102,89.113C627.056,89.747,608.591,89.046,605.102,89.113L605.102,89.113z"/>
	<path fill="#242424" d="M700.599,108.639c1.832-0.042,4.847,0.307,8.663,0.921C704.699,108.83,701.215,108.369,700.599,108.639z"/>
	<path fill="#242424" d="M91.236,766.838c-0.016-0.096,0.219,1.03,0.782,2.657c0.256,0.58,0.461,1.041,0.754,1.704
		C91.568,768.233,91.304,766.913,91.236,766.838z"/>
	<path fill="#242424" d="M614.483,89.801c-1.773-0.143-3.251-0.234-4.439-0.259C611.56,89.579,613.01,89.704,614.483,89.801z"/>
	<path fill="#242424" d="M614.483,89.801c4.998,0.404,12.478,1.247,23.478,2.389c-4.092-0.455-8.493-0.944-13.156-1.462
		C621.509,90.354,618.036,90.033,614.483,89.801z"/>
	<path fill="#242424" d="M633.615,91.011c7.517,0.855,13.474,1.098,19.055,2.117C655.43,93.375,653.087,92.311,633.615,91.011z"/>
	<path fill="#242424" d="M605.102,89.113c-3.215-0.096-7.095-0.212-12.052-0.361c-2.477-0.075-5.224-0.159-8.293-0.252
		c-0.254,0.006-0.544,0.012-0.802,0.018c2.982,0.102,5.92,0.203,8.819,0.302c5.9,0.247,11.639,0.486,17.27,0.722
		C605.742,89.282,603.941,89.128,605.102,89.113z"/>
	<path fill="#242424" d="M574.531,88.731c3.454-0.078,6.559-0.148,9.424-0.213c-0.054-0.002-0.106-0.004-0.161-0.006
		C580.756,88.584,577.67,88.657,574.531,88.731z"/>
	<path fill="#242424" d="M894.675,1015.02c1.198-0.749,2.561-1.647,3.831-2.519C915.452,999.153,907.961,1004.941,894.675,1015.02z"
		/>
	<path fill="#242424" d="M1146.702,565.821c-2.691-20.102-6.884-39.756-11.873-58.098c-0.171-3.227-0.512-6.558-0.766-9.757
		c-0.671-7.432-1.366-13.995-1.814-15.932c0.518,5.588,1.072,11.55,1.65,17.779c0.179,2.192,0.417,4.423,0.606,6.675
		c-0.279-1.055-0.589-2.084-0.884-3.127c-0.483-3.749-1.017-7.892-1.582-12.279c-0.363-2.798-0.737-5.69-1.119-8.628
		c-0.58-2.91-1.171-5.865-1.76-8.821c-1.209-5.902-2.417-11.805-3.549-17.338c-1.538-5.441-2.974-10.519-4.204-14.871
		c-1.252-4.344-2.218-7.985-3.025-10.495c-0.916-2.476-1.438-3.891-1.438-3.891c1.854,4.768,2.965,10.094,4.587,15.838
		c0.777,2.882,1.591,5.897,2.447,9.072c0.426,1.587,0.863,3.215,1.313,4.886c0.329,1.697,0.667,3.438,1.014,5.227
		c0.698,3.577,1.43,7.345,2.208,11.331c0.708,3.997,1.787,8.166,2.198,12.681c0.49,3.982,1.008,8.195,1.55,12.588
		c-0.798-2.621-1.619-5.203-2.449-7.759c-0.528-3.058-1.033-5.979-1.476-8.549c-2.183-8.608-3.578-13.051-2.762-5.146
		c-0.077-0.277-0.16-0.571-0.234-0.84c-1.875-5.91-3.126-9.85-3.126-9.85c-4.462-19.567-8.684-33.182-9.52-37.344
		c-0.403-2.088,0.027-1.816,1.492,1.312c0.733,1.565,1.724,3.844,2.996,6.9c1.232,3.07,2.584,6.968,4.284,11.695
		c-3.707-11.539-7.596-21.11-10.715-29.471c-3.541-8.208-6.258-15.25-9.083-21.213c-2.813-5.967-5.097-11.119-7.35-15.695
		c-2.323-4.542-4.404-8.608-6.433-12.574c-1.946-4.004-4.23-7.714-6.506-11.768c-0.73-1.246-1.467-2.54-2.217-3.857
		c-3.787-7.824-9.246-17.655-16.003-27.763c-0.711-0.387-1.159-0.518-5.34-5.251c-0.937-1.037-2.061-2.326-3.406-3.871
		c-2.379-3.121-4.928-6.382-7.768-9.859l3.614,2.301c-1.54-2.022-3.185-4.178-4.867-6.386c5.485,6.056,10.402,11.9,10.402,11.9
		s1.998,1.798,3.997,3.595c1.986,1.823,3.973,3.646,3.973,3.646s-7.562-8.829-15.563-17.158c-2.356-2.481-4.738-4.918-6.93-7.128
		c-2.116-2.48-4.275-5.011-6.49-7.607c-1.437-1.67-2.889-3.357-4.349-5.053l-4.623-4.902c-3.094-3.262-6.189-6.525-9.22-9.721
		c-12.544-12.391-24.606-23.097-31.001-29.252c-3.099-2.708-6.766-5.914-10.951-9.572c-4.286-3.543-9.33-7.245-14.787-11.432
		c-5.53-4.086-11.864-8.123-18.534-12.64c-3.155-1.867-6.436-3.808-9.781-5.788c-1.871-1.358-3.417-2.401-5.184-3.636
		c-2.251-1.547-4.887-3.391-9.109-6.513c-4.357-2.918-10.338-7.049-19.203-13.36c7.55,5.687,3.026,3.359-7.194-2.758
		c-5.226-2.865-11.955-6.554-19.358-10.613c-3.716-2.001-7.515-4.257-11.528-6.265c-4.026-1.979-8.121-3.991-12.174-5.983
		c-16.052-8.319-32.252-14.636-40.607-18.139c-4.186-1.741-6.583-2.374-6.151-1.954c0.45,0.37,3.626,2.048,10.354,5.451
		c-9.784-5.333-19.492-8.969-28.906-12.924c-9.385-4.06-19.026-6.929-28.965-10.256c-9.894-3.496-20.488-6.131-31.979-9.374
		c-2.874-0.812-5.809-1.641-8.814-2.491c-3.017-0.807-6.147-1.453-9.333-2.229c-6.381-1.548-13.084-3.172-20.178-4.893
		c0.818,0.56,5.813,1.942,4.319,1.872c-0.75-0.01-3.102-0.49-8.442-1.42c-5.364-0.802-13.716-2.051-26.408-3.95
		c-2.312-0.202-7.782-0.471-11.266-0.569c-1.558-0.167-2.107-0.226-3.443-0.369c1.019,0.125,1.778,0.218,2.809,0.345
		c-2.227-0.085-2.426-0.079,1.046,0.125c6.081,0.589,11.51,1.685,15.936,2.52c4.425,0.845,7.829,1.554,9.778,2.056
		c-12.664-1.103-39.173-4.189-66.082-4.547c-6.723-0.075-13.457-0.449-19.996-0.283c-6.536,0.233-12.876,0.458-18.804,0.669
		c-11.865,0.154-22.01,1.66-28.825,2.336c-30.207,2.158,12.545-1.942-4.01-1.385c0,0-10.231,0.989-20.309,3.032
		c-10.094,1.803-20.188,3.606-20.188,3.606c-2.142-0.534-21.996,2.867-32.655,4.399c-5.254,1.068-8.226,1.562-5.568,0.57
		c2.617-1.17,11.023-3.168,28.567-6.983c0,0-3.958,0.805-9.894,2.014c-5.929,1.241-13.893,2.65-21.654,4.908
		c-7.807,2.07-15.614,4.139-21.47,5.691c-2.932,0.76-5.292,1.676-6.983,2.185c-1.679,0.549-2.638,0.863-2.638,0.863
		c-4.552,1.385-9.316,2.835-14.23,4.33c-2.456,0.759-4.949,1.529-7.471,2.309c-2.517,0.796-4.983,1.825-7.513,2.744
		c-5.036,1.91-10.156,3.852-15.295,5.801l-7.709,2.958c-2.548,1.037-5.023,2.239-7.525,3.35c-4.98,2.278-9.919,4.538-14.756,6.751
		c-2.414,1.117-4.802,2.222-7.157,3.312c-2.333,1.135-4.555,2.411-6.777,3.584c-8.827,4.816-17.089,9.172-24.014,13.324
		c-6.561,3.889-13.897,8.448-20.853,12.86c-1.733,1.111-3.447,2.208-5.121,3.281c-1.61,1.171-3.183,2.314-4.701,3.418
		c-3.024,2.218-5.829,4.277-8.275,6.071c-9.754,7.196-13.715,10.229-3.199,2.114c0,0-1.293,0.916-3.554,2.52
		c-2.219,1.66-5.59,3.757-9.232,6.823c-3.707,2.974-8.032,6.443-12.666,10.16c-4.61,3.744-9.67,7.561-14.261,11.943
		c-9.304,8.603-19.008,16.762-25.413,23.808c-6.629,6.803-11.049,11.338-11.049,11.338l-0.97,0.366
		c-4.544,4.304-8.523,9.174-12.705,13.885c-4.138,4.75-8.292,9.518-12.462,14.305c-3.852,5.048-7.718,10.115-11.6,15.203
		c-3.792,5.151-7.936,10.076-11.321,15.581c-6.973,10.853-14.581,21.413-20.668,33.055c-3.21,5.712-6.434,11.448-9.67,17.206
		c-2.841,5.96-5.695,11.944-8.56,17.954c-6.104,11.852-10.513,24.559-15.696,37.054c-1.34,3.11-2.417,6.323-3.446,9.561
		c-1.065,3.225-2.132,6.457-3.202,9.697c-1.074,3.238-2.151,6.483-3.23,9.735c-1.105,3.245-2.199,6.501-2.998,9.851
		c-3.41,13.331-7.529,26.631-9.977,40.453c-1.345,6.879-3.019,13.743-4.163,20.729c-1.045,7.008-2.093,14.049-3.148,21.124
		c-1.169,8.354-1.257,16.872-1.746,25.739c-0.216,4.435-0.436,8.967-0.663,13.636c-0.084,4.672,0.086,9.487,0.11,14.474
		c0.05,4.988,0.101,10.152,0.155,15.533c-0.044,5.384,0.669,10.958,0.979,16.804c0.397,5.843,0.812,11.943,1.247,18.338
		c0.824,6.36,1.686,13.014,2.591,20.002l0.04,11.139c0.983,5.334,2.378,11.288,3.672,17.727c0.662,3.217,1.347,6.549,2.05,9.966
		c0.348,1.71,0.701,3.441,1.057,5.19c0.472,1.723,0.948,3.463,1.428,5.219c1.918,7.026,3.901,14.287,5.89,21.572
		c0.893,3.675,2.172,7.239,3.431,10.787c1.243,3.554,2.48,7.089,3.701,10.577c9.622,27.988,21.983,51.612,27.25,59.362
		c4.439,10.953,13.76,27.707,26.991,46.838c13.247,19.109,30.784,40.27,50.833,60.192c20.006,19.967,42.434,38.716,64.262,54.321
		c21.839,15.604,42.866,28.324,59.551,37.555l3.442-0.304c12.596,6.809,25.32,13.027,38.417,18.822
		c9.701,5.433,19.567,10.539,29.445,15.08c32.009,14.969,63.605,24.313,85.939,29.979c-13.649-4.367-40.018-11.739-68.319-23.27
		c-13.068-5.247-26.43-11.551-39.181-18.369c8.336,3.536,16.834,6.92,25.587,10.162c25.473,9.363,52.984,17.74,84.537,24.708
		l-1.276-0.943c4.606,1.724,9.209,3.456,13.845,5.078c25.615,8.967,51.655,16.604,78.122,22.099
		c13.197,2.904,26.55,4.977,39.896,6.867c13.392,1.565,26.8,2.975,40.26,3.376c26.883,1.162,53.868-0.385,80.264-4.92
		c43.032-7.206,84.058-21.985,122.046-41.51c40.89-13.713,78.932-31.669,112.061-51.259c19.878-13.32,33.806-23.583,47.151-33.786
		c-1.729,1.41-3.273,2.669-4.603,3.754c1.916-1.535,4.852-3.698,7.671-6.153c4.103-3.345,8.267-6.74,12.551-10.232
		c4.18-3.618,8.384-7.451,12.794-11.403c-3.788,3.312-7.493,6.552-11.039,9.653c-3.573,3.061-7.119,5.83-10.313,8.525
		c14.106-11.901,34.303-31.521,51.291-53.149l8.777-8.007c1.414-1.742,2.449-3.223,3.797-5.133
		c4.114-5.384,6.927-9.218,8.678-11.761c1.667-2.602,2.274-3.914,2.153-4.146c-0.247-0.467-3.505,3.296-8.366,8.655
		c4.042-5.607,7.442-11.305,10.621-16.534c3.281-5.166,5.881-10.159,8.136-14.517c1.691-2.176,3.518-4.793,5.44-7.759
		c1.769-3.052,3.625-6.456,5.549-10.111c4.041-7.217,7.41-15.894,11.222-24.607c7.04-17.712,12.804-36.808,17.969-50.892
		c0.812-4.571,3.157-15.252,5.556-29.027c2.391-13.774,4.738-30.655,6.187-47.46c0.425-4.642,0.776-9.269,1.072-13.828
		c0.085-0.412,0.176-0.811,0.26-1.225C1150.147,649.474,1152.591,606.756,1146.702,565.821z M1101.692,800.915
		c2.205-4.569,4.444-9.207,6.638-13.751c1.582-3.153,2.919-6.361,4.239-9.459c-0.809,2.946-1.687,6.009-2.637,9.155
		C1105.663,794.143,1101.692,800.915,1101.692,800.915z M1127.671,713.599c-6.04,19.46-12.521,35.636-24.076,57.78
		c-1.408,2.78-2.872,5.666-4.398,8.677c-1.656,2.946-3.383,6.015-5.188,9.224c-1.78,3.215-3.64,6.571-5.587,10.087
		c-2.08,3.441-4.255,7.039-6.534,10.81c-2.311,3.751-4.583,7.755-7.187,11.824c-2.644,4.043-5.412,8.274-8.315,12.71
		c-2.808,4.494-6,9.031-9.373,13.768c-3.404,4.713-6.683,9.838-10.583,14.878c6.067-8.123,6.02-9,11.858-17.245
		c-2.781,3.867-5.545,7.714-8.31,11.56c-2.712,3.881-5.695,7.571-8.506,11.41c-2.879,3.79-5.629,7.705-8.622,11.494
		c-3.012,3.777-6.051,7.588-9.133,11.452c-1.544,1.93-3.101,3.873-4.668,5.832c-1.643,1.897-3.3,3.809-4.971,5.738
		c-3.367,3.838-6.794,7.744-10.296,11.735c-3.635,3.872-7.423,7.759-11.31,11.735c-1.956,1.974-3.938,3.973-5.945,5.998
		c-2.092,1.94-4.212,3.905-6.36,5.898c-16.81,20.467-44.856,41.095-48.864,48.095c0,0,4.486-3.788,11.216-9.47
		c6.571-5.87,15.404-13.612,23.867-21.764c4.325-3.976,8.448-8.158,12.337-12.052c3.874-3.909,7.565-7.482,10.596-10.672
		c6.009-6.431,10.015-10.719,10.015-10.719c-17.875,19.685-35.717,38.464-58.257,58.565c-5.702,4.938-11.499,10.205-17.912,15.266
		c-3.184,2.561-6.436,5.178-9.765,7.855c-3.42,2.558-6.918,5.175-10.502,7.856c-8.33,6.058-17.297,12.281-27.069,18.47
		c-2.213,0.918-4.54,1.85-6.914,2.786c8.347-5.622,18.136-12.362,25.76-18.16c-10.573,6.873-20.657,13.701-31.044,20.21
		c-3.006,1.148-6.075,2.298-9.214,3.443c3.526-2.117,7.303-4.371,11.277-6.882c6.339-4.157,13.398-8.429,20.445-13.444
		c4.628-3.105,9.32-6.451,14.02-9.881l2.104-1.082c0,0,0.652-0.662,1.707-1.731c8.605-6.401,17.192-13.133,25.428-19.91
		c13.917-11.535,26.613-23.333,36.578-33.484c-10.318,9.053-30.134,27.184-45.593,39.67c-3.87,3.11-7.376,5.981-10.368,8.284
		c-0.934,0.694-1.79,1.324-2.606,1.921c1.297-1.389,2.68-2.95,4.058-4.548c4.415-5.038,8.829-10.075,8.829-10.075
		c-3.581,3.512-8.805,8.727-13.949,13.584c-1.032,0.884-2.051,1.752-3.056,2.604c0.487-0.466,1.04-0.988,1.677-1.579
		c-1.513,1.384-3.123,2.773-4.746,4.161c-2.998,2.501-5.656,4.647-7.521,6.019l0.527-0.271c-9.11,7.168-19.587,14.353-31.294,21.436
		c1.737-1.217,3.35-2.392,4.768-3.427c3.441-2.532,5.889-4.464,7.042-5.609c0,0-1.998,1.384-4.995,3.46
		c-3.045,2.002-6.892,5.01-11.107,7.441c-3.017,1.849-6.024,3.691-8.641,5.296c-0.636,0.227-1.275,0.45-1.912,0.676
		c0.101-0.076,0.22-0.159,0.316-0.233c1.568-1.15,2.608-1.988,3.186-2.551c1.155-1.129,0.463-1.164-1.546-0.421
		c-3.933,1.665-13.453,5.695-24.241,10.262c-0.29,0.108-0.597,0.221-0.888,0.329c-2.709,0.806-5.364,1.576-7.96,2.308
		c1.722-1.072,4.162-2.565,7.737-4.681c4.462-2.516,10.48-6.137,18.734-11.099c6.37-3.197,2.92-0.086,3.392,0.447
		c0.235,0.26,1.452-0.135,5.38-2.326c3.95-2.155,10.554-6.203,21.253-13.653c10.962-6.959,40.8-30.55,70.372-62.061
		c14.857-15.667,29.82-33.081,43.394-50.3c13.608-17.203,25.995-34.041,36.395-48.286c-4.771,6.157-9.636,12.174-10.796,12.988
		c-0.949,0.624,0.582-1.939,6.025-10.469c1.82-2.435,3.252-4.35,3.252-4.35l2.935-5.099c0,0-0.612,0.87-1.552,2.206
		c0.155-0.241,0.295-0.46,0.453-0.707c14.982-22.675,34.684-54.147,48.38-88.158c3.411-8.478,6.629-17.039,9.038-25.633
		c1.205-4.298,2.395-8.546,3.568-12.725c0.552-2.099,1.209-4.155,1.65-6.239c0.416-2.09,0.827-4.16,1.234-6.208
		c1.575-8.2,3.265-16.015,3.828-23.455c0.689-7.414,1.645-14.269,1.469-20.508c0.738-6.952,1.175-9.575,1.442-9.851
		c0.099-2.629,0.321-5.46,0.354-8.469c-0.027-3.009-0.055-6.193-0.085-9.523c-0.027-3.328-0.054-6.801-0.083-10.39
		c0.001-3.589-0.403-7.276-0.594-11.057c-0.244-3.778-0.492-7.641-0.744-11.56c-0.211-3.923-0.862-7.857-1.279-11.84
		c-0.476-3.975-0.954-7.978-1.433-11.977c-0.54-3.989-1.325-7.936-1.973-11.87c-5.365-31.465-14.017-59.993-18.709-71.624
		c-0.342-2.408-0.852-5.515-1.774-9.135c-0.959-3.607-2.172-7.781-3.601-12.428c-2.703-9.354-7.03-20.316-11.826-32.446
		c-9.862-24.167-24.096-51.937-39.373-77.604c-15.226-25.751-32.401-48.994-46.401-65.018
		c-13.952-16.081-24.181-25.369-22.954-26.379c0,0-1.555-1.316-4.275-3.62c-1.361-1.151-3.014-2.548-4.909-4.151
		c-1.868-1.638-4.042-3.4-6.52-5.186c-9.591-7.577-23.219-16.509-37.37-24.458c-14.256-7.767-29.087-14.317-40.392-18.699
		c-5.636-2.24-10.448-3.772-13.763-5c-3.321-1.211-5.252-1.794-5.252-1.794s0.852,0.113,1.702,0.225
		c0.844,0.142,1.687,0.285,1.687,0.285c-39.243-13.147-67.091-16.919-88.038-19.338c-21.035-2.117-35.503-2.622-49.896-2.281
		c-18.876-1.04-5.073-1.119-3.487-1.371c-7.474-0.273-14.529-0.757-21.215-0.799c-6.689,0.05-13.005,0.098-18.994,0.143
		c-11.995-0.156-22.64,0.927-32.394,1.413c-1.908,0.08-3.749,0.212-5.584,0.346c25.525-6.95,43.207-12.032,60.991-16.705
		c19.727-4.754,39.767-9.284,70.581-9.488c13.565-0.573,28.544-0.423,41.262,0.752c5.518,0.23,10.558,1.14,14.933,1.639
		c4.359,0.628,8.054,0.97,10.703,1.615c5.322,1.135,6.738,1.647,2.009,1.126c0,0-0.87-0.147-2.175-0.367
		c-1.3-0.256-3.052-0.469-4.81-0.642c-3.511-0.385-7.022-0.769-7.022-0.769c6.466,0.727,13.413,1.748,20.653,3.042
		c4.592,1.787,9.527,3.709,15.022,5.848c7.585,3.439,16.225,7.357,26.406,11.973c4.955,2.591,10.286,5.378,16.051,8.392
		c2.869,1.533,5.919,2.991,8.957,4.742c3.014,1.796,6.14,3.659,9.386,5.592l-3.866-2.095c5.273,2.977,10.988,6.203,17.044,9.622
		c5.815,3.828,11.956,7.873,18.33,12.07c1.589,1.059,3.192,2.128,4.808,3.206c1.55,1.171,3.111,2.352,4.684,3.541
		c3.14,2.388,6.323,4.809,9.539,7.255c3.172,2.501,6.539,4.828,9.62,7.549c3.104,2.691,6.229,5.4,9.364,8.117
		c-11.901-9.633-1.319,0.169,8.304,9.145c9.174,9.49,17.367,18.174,2.637,4.694c5.427,5.093,10.344,9.707,14.808,13.895
		c4.43,4.226,8.087,8.345,11.561,11.88c3.435,3.578,6.492,6.762,9.225,9.608c2.584,2.982,4.86,5.612,6.882,7.946
		c8.1,9.332,12.241,13.856,15.23,17.678c5.996,7.64,10.301,10.168,32.895,42.802l8.05,16.467c1.895,2.801,3.477,5.337,4.823,7.749
		c1.396,2.388,2.679,4.582,3.93,6.722c2.469,4.312,4.816,8.408,7.684,13.417c2.568,5.164,5.49,11.333,9.393,19.652
		c0.746,1.642,1.581,3.377,2.391,5.199c1.615,5.532,3.512,11.407,5.174,17.99c0.936,3.376,1.88,6.939,2.83,10.654
		c-0.204-0.481-0.431-1.024-0.698-1.67c-1.251-2.74-3.118-7.056-5.797-13.455c4.294,11.224,7.558,22.159,10.68,32.575
		c1.949,8.629,3.92,18.062,5.913,28.561c-0.551-4.034-1.033-8.644-1.365-12.852c2.299,8.673,4.32,17.031,6.054,25.077
		c0.795,8.403,1.156,14.198,1.761,20.424c0.427,9.363,1.67,19.831,1.756,41.891c-0.669,4.723-1.34,9.447-2.009,14.167
		c-2.677,14.098-5.194,28.17-8.803,41.601c-0.441,3.926-2.479,16.066,4.745-13.496c1.965-12.087,4.234-24.828,6.068-38.449
		c-0.007,3.155-0.037,6.524-0.094,10.15c0.295-5.685,1.301-5.003,2.288,0.101c-3.208,22.185-8.749,45.966-18.399,74.189
		c-4.626,19.218,9.598-25.328,4.24-5.162c7.311-24.8,11.786-47.255,14.353-67.955c1.352,7.835,2.566,23.801,1.702,42.792
		c-0.42-5.375-3.833,1.832-4.371-8.22c0.059,2.414,0.127,6.619,0.069,11.932c0.021,6.598-0.053,14.914-0.323,23.607
		c-1.569,6.58-3.39,12.969-5.49,19.214c-2.604,14.238-2.113,14.863,0.009,8.155c1.056-3.352,2.517-8.529,4.196-14.72
		c0.351-1.172,0.643-2.425,0.937-3.68c-0.26,5.705-0.608,11.365-0.994,16.649C1128.591,710.032,1128.114,711.86,1127.671,713.599z
		 M1065.877,861.661c0,0-2.147,2.88-4.294,5.76c-2.164,2.866-4.474,5.618-4.474,5.618
		C1075.533,846.382,1070.485,853.908,1065.877,861.661z M914.906,1015.008c-0.138,0.139-0.337,0.325-0.563,0.534
		c-0.631,0.323-1.247,0.637-1.817,0.928c-1.332,0.637-2.512,1.172-3.572,1.642C913.531,1015.135,916.162,1013.675,914.906,1015.008z
		 M430.488,1042.575c-14.22-6.553-26.686-13.378-34.454-17.919c-88.432-50.557,12.25,10.107-25.735-10.9
		c-7.287-4.804-13.375-9.153-19.336-12.881c-5.776-3.99-11.434-7.371-17.13-11.244c-2.871-1.911-5.807-3.866-8.888-5.917
		c-3.051-2.094-6.16-4.401-9.528-6.823c-3.401-2.384-6.846-5.137-10.555-8.151c-1.855-1.508-3.781-3.074-5.787-4.704
		c-1.924-1.723-3.925-3.514-6.011-5.382l1.029-1.566c-20.954-20.049-30.874-33.132-37.433-40.572
		c-6.205-7.745-8.667-10.262-10.791-12.591c-2.127-2.326-4.247-4.227-9.044-11.314c-4.799-7.059-12.779-19.087-23.964-42.929
		c0,0,1.364,2.425,3.411,6.065c2.181,3.561,4.867,8.427,7.911,13.07c2.936,4.707,5.971,9.336,8.356,12.73
		c2.325,3.433,3.924,5.68,3.924,5.68s-7.342-11.45-13.932-23.391c-3.242-6-6.432-12.033-8.653-16.653
		c-2.322-4.567-3.72-7.689-3.72-7.689s1.584,2.382,3.314,4.672c1.695,2.302,3.389,4.605,3.389,4.605
		c-6.846-13.119-11.854-24.363-16.013-34.554c-4.227-10.166-7.468-19.349-10.575-28.533c-5.354-16.222-10.008-32.634-15.364-55.857
		c2.28,6.803,4.797,13.521,7.55,20.129c14.307,34.258,34.138,66.023,57.614,94.61c23.502,28.604,50.316,54.245,78.757,77.601
		c4.839,3.984,9.735,7.886,14.655,11.755c6.011,6.091,12.716,12.522,20.118,19.489l-1.325-0.848
		c5.502,5.486,10.771,10.12,15.385,14.476c2.332,2.153,4.542,4.192,6.637,6.126c2.162,1.862,4.207,3.622,6.142,5.289
		c7.753,6.66,13.739,11.869,18.864,15.716c10.078,7.905,15.409,11.92,20.944,15.576c2.724,1.884,5.437,3.761,8.765,6.062
		c1.656,1.162,3.465,2.431,5.504,3.861c2.092,1.356,4.422,2.866,7.067,4.581c2.637,1.73,5.59,3.667,8.937,5.862
		c3.3,2.272,7.129,4.594,11.495,7.134c4.341,2.586,9.17,5.463,14.57,8.68c5.568,2.936,11.725,6.182,18.555,9.783l-5.191-4.664
		c3.009,0.399,10.412,3.965,21.379,8.456c5.449,2.315,11.604,5.293,18.709,7.774c3.736,1.339,7.609,2.914,11.657,4.446
		c-1.414-0.137-2.822-0.265-4.245-0.411c-15.945-1.703-32.628-3.959-51.666-8.177c-14.249-5.078-31.669-11.682-53.381-20.947
		c4.807,2.051,11.719,5,18.916,8.071c7.259,2.937,14.759,6.123,20.792,8.47c2.724,1.115,5.103,2.083,7.011,2.872
		c-3.168-0.759-6.395-1.567-9.706-2.446C456.818,1054.328,443.029,1048.442,430.488,1042.575z M158.655,642.86
		c-0.413-5.667-1.213-15.93-1.185-34.152c0.613,9.283,1.439,18.981,2.543,31.343c0.002,0.523-0.024,1.043-0.019,1.566
		c0.098,27.742,4.66,55.536,12.939,82.121c-0.2,1.5-1.416-1.295-3.499-8.295c-2.745-9.732-7.258-27.57-10.421-53.311
		c-1.372-17.621-0.342-12.733-0.084-12.58C159.065,649.632,159.03,648.534,158.655,642.86z M162.643,573.693
		c-1.312,9.945-2.098,21.941-2.533,28.109c0,0,0.025-1.637,0.069-4.503c-0.011-2.872,0.214-6.952,0.453-11.858
		c0.57-9.8,1.829-22.838,4.168-35.727c2.418-12.87,5.534-25.656,8.527-35.069c1.319-4.761,2.821-8.602,3.698-11.35
		c0.929-2.732,1.459-4.293,1.459-4.293c3.469-7.561,4.095-8.217,3.28-5.481c-0.396,1.373-1.189,3.582-2.085,6.237
		c-0.848,2.668-1.834,5.772-2.818,8.868c1.795-4.999,3.325-9.662,5.157-14.169c0.872-2.271,1.74-4.531,2.619-6.822
		c0.96-2.261,1.933-4.551,2.937-6.914c4.005-9.458,9.004-19.899,16.895-33.506c-1.436,3.878-1.595,5.57-3.89,11.225
		c-1.162,2.817-2.944,6.578-5.401,12.222c-1.251,2.81-2.803,6.03-4.381,9.9c-1.376,3.246-2.987,6.894-4.62,11.032
		c0.979-2.454,2.724-6.701,5.108-11.998c1.808-4.3,4.331-9.136,6.812-14.422c2.762-5.148,5.502-10.757,8.688-16.132
		c0.562-1.013,1.137-2.017,1.712-3.021c-13.196,27.929-24.089,57.109-32.685,87.103c-7.787,27.565-13.302,56.107-15.127,85.097
		C160.332,600.439,161.315,584.398,162.643,573.693z M705.471,149.262c-1.346-0.301-2.701-0.498-3.72-0.629
		c-1.018-0.143-1.697-0.239-1.697-0.239c6.885,0.295,13.192,1.295,19.092,1.841c5.878,0.723,11.366,1.047,16.363,2.069
		c10.02,1.823,18.612,3.061,26.081,4.806c0.769,0.191,1.487,0.37,2.236,0.556c-37.28-0.272-75.766,4.659-112.449,13.156
		c-40.417,9.283-78.689,22.564-112.966,36.212c-4.731,1.152-9.583,2.333-14.678,3.573c-8.346,1.85-17.041,4.824-26.761,7.74
		c-4.826,1.578-9.995,2.871-15.245,4.908c-5.274,1.938-10.826,3.979-16.704,6.139l-10.514,1.537
		c-3.116,1.382-7.982,3.37-14.326,5.882c-6.312,2.587-14.267,5.307-23.007,9.472c-4.415,1.981-9.122,4.092-14.089,6.319
		c-2.475,1.133-5.058,2.208-7.623,3.469c-2.541,1.313-5.142,2.657-7.798,4.03c-5.314,2.748-10.848,5.611-16.572,8.571
		c-5.732,2.951-11.321,6.595-17.24,10.017c-8.603,4.818-17.101,10.51-25.75,16.435c-0.428,0.441-0.916,0.943-1.44,1.483
		c0.479-0.506,0.94-0.991,1.364-1.432c-1.108,0.759-2.227,1.52-3.341,2.285c15.904-17.185,33.292-33.771,52.103-49.157
		c15.607-12.619,31.98-24.764,49.584-35.008l13.09-7.903l13.591-7.076c8.94-4.975,18.394-8.917,27.738-13.061
		c37.576-16.124,77.276-26.932,116.465-32.265c39.186-5.471,77.751-5.905,113.599-2.646
		C710.858,150.347,708.164,149.805,705.471,149.262z M718.915,212.416c-5.19-0.826-9.056-1.57-4.881-1.681
		c2.088-0.052,6.194-0.007,13.121,0.565c6.935,0.485,16.709,1.393,30.054,3.356c18.917,2.718,29.914,5.482,36.355,7.148
		c6.46,1.627,8.251,2.68,8.618,3.111c0.688,0.986-4.587,0.58,8.115,4.382c18.221,4.464,43.048,11.909,69.47,25.461
		c26.364,13.496,53.885,33.698,75.503,60.846c-15.42-16.928-28.438-29.174-45.787-41.551c0,0,2.561,2.045,6.402,5.113
		c3.946,2.936,8.691,7.452,13.566,11.787c4.833,4.385,9.323,9.135,12.689,12.693c3.28,3.643,5.468,6.073,5.468,6.073
		c-22.195-22.51-45.11-36.978-56.376-43.576c-5.726-3.173-8.432-4.585-7.164-3.538c0.634,0.523,2.262,1.661,5.002,3.492
		c2.794,1.751,6.516,4.465,11.374,8.068c1.085,0.014,4.687,1.536,9.64,4.939c2.499,1.669,5.475,3.632,8.717,5.995
		c3.122,2.518,6.597,5.32,10.355,8.351c7.335,6.282,15.312,14.113,23.239,23.061c7.911,8.966,15.749,19.051,23.104,29.548
		c14.705,20.985,27.51,43.658,36.906,61.238c4.883,8.7,8.649,16.273,11.685,21.702c3.05,5.423,5.155,8.803,6.078,9.408
		c0,0,3.276,8.202,6.552,16.404c1.636,4.098,3.009,8.295,4.156,11.395c1.111,3.113,1.853,5.188,1.853,5.188
		c-3.736-9.38-4.306-10.889-8.33-20.029c3.269,7.926,5.436,14.821,7.747,20.619c2.301,5.805,4.013,10.782,5.651,15.159
		c1.644,4.375,3.164,8.167,4.656,11.74c1.389,3.607,2.699,7.011,4.066,10.56c1.363,3.561,2.783,7.267,4.391,11.466
		c1.389,4.266,2.897,9.056,4.588,14.743c1.817,5.66,3.301,12.326,5.052,20.251c1.949,7.892,3.22,17.202,4.901,28.115
		c0.965,7.631,1.412,14.731,1.97,20.707c0.601,5.978,0.39,10.897,0.497,14.18c0.026,6.578-0.314,6.7-1.157-3.694
		c0,0,0.299,4.251,0.75,10.627c0.11,1.596,0.228,3.324,0.353,5.151c0.023,1.829,0.047,3.758,0.071,5.753
		c0.053,3.994,0.108,8.254,0.163,12.515c0.019,8.521-0.702,17.013-0.907,23.407c-0.093,3.201-0.583,5.823-0.732,7.681
		c-0.208,1.851-0.327,2.909-0.327,2.909c-2.173,15.953-2.754,15.671-1.472,4.569c-0.253,1.986-0.537,4.227-0.85,6.683
		c-0.682,4.809-1.959,10.333-3.066,16.301c-0.646,2.963-1.039,6.093-1.937,9.151c-0.827,3.074-1.669,6.198-2.51,9.322
		c-3.036,12.591-7.512,24.777-11.064,33.839c-3.595,9.05-6.304,14.968-6.304,14.968l0.175-0.768
		c-2.645,6.941-7.428,18.132-12.974,29.237c-5.502,11.123-11.693,22.169-15.918,29.33c-15.07,22.095,6.759-11.594,2.459-6.206
		c0,0-7.344,12.549-15.388,24.728c-7.977,12.217-16.48,24.114-16.48,24.114c-15.656,18.024,13.66-20.657,34.224-55.028
		c-16.324,21.723-23.046,31.61-34.261,48.1c-5.645,8.203-12.538,17.953-23.077,30.971c-10.574,12.964-24.771,29.306-46.102,49.217
		c0,0,9.671-9.653,18.849-19.785c4.605-5.049,9.091-10.21,12.446-14.086c3.303-3.925,5.504-6.541,5.504-6.541
		c-12.574,12.44-26.021,26.452-42.604,41.906c-16.553,15.443-36.359,32.319-61.898,49.006c1.59-0.875,4.292-2.709,7.832-4.997
		c3.56-2.26,7.819-5.178,12.389-8.418c9.214-6.378,19.476-14.304,27.811-20.841c4.146-3.304,7.822-6.233,10.623-8.464
		c2.781-2.257,4.752-3.746,5.523-4.11c1.497-0.781-1.579,3.19-13.063,13.948c-13.515,11.475-31.381,26.497-59.129,45.953
		c-1.361-1.585-28.342,17.749-66.436,33.617l1.64-3.321c-20.252,8.907-29.957,12.083-37.313,15.09
		c-7.461,2.694-12.706,4.926-25.321,8.451c-24.233,5.232-39.242,5.997-49.396,6.056c-5.088,0.069-8.993-0.086-12.35-0.454
		c-3.337-0.352-6.142-0.647-9.028-0.952c-1.264-0.022-2.469-0.043-3.625-0.063c-11.568-1.481-23.308-3.53-35.113-6.153
		c-21.898-4.82-43.988-11.444-65.922-18.989c-18.669-8.341,16.606,5.396,6.764,0.548c-5.557-1.848-11.413-3.803-17.742-6.233
		c-6.266-2.585-13.164-5.259-20.644-8.886c-15.066-6.994-33.063-16.423-55.514-30.292l5.335,2.694
		c-31.923-18.766-58.267-36.772-82.274-53.856c-22.629-16.2-42.895-32-62.496-49.028c-6.106-6.845-12.823-14.573-19.819-22.919
		c-11.365-13.375-23.513-28.236-35.035-43.269c-11.533-15.041-22.272-30.387-31.333-44.607c-7.548-14.764,5.251,6.211,3.598,1.299
		c-3.028-4.874-5.663-9.495-8.059-13.834c-2.183-4.443-4.207-8.561-6.092-12.397c-4.013-7.58-6.433-14.488-8.801-20.468
		c-1.172-2.997-2.262-5.789-3.29-8.419c-0.819-2.703-1.587-5.24-2.319-7.656c-1.479-4.836-2.811-9.186-4.103-13.413
		c-0.982-4.317-1.935-8.508-2.943-12.943c-1.014-4.44-2.237-9.104-2.927-14.51c-0.777-5.386-1.948-11.377-2.769-18.437
		c-0.31-3.545-0.642-7.343-1-11.441c-0.309-4.105-0.914-8.509-0.866-13.289c0,0,0.164-4.067,0.411-10.167
		c0.194-3.045,0.105-6.608,0.576-10.4c0.403-3.791,0.833-7.835,1.263-11.878c0.634-8.105,2.259-16.089,3.239-22.096
		c0.431-2.533,0.797-4.677,1.082-6.347c-3.831,19.337-4.133,15.595-2.915,0.41c0.191-4.041,1.208-8.755,1.983-14.098
		c0.927-5.312,1.641-11.27,3.228-17.382c1.483-6.133,2.811-12.679,4.629-19.206c1.947-6.499,3.926-13.105,5.87-19.595
		c-3.138,7.997-6.146,15.412-8.646,22.041c-2.169,6.747-4.055,12.615-5.57,17.328c0,0,1.349-5.268,3.372-13.169
		c0.912-3.983,2.351-8.518,3.939-13.366c1.58-4.848,3.152-10.066,4.934-15.209c4.016-10.112,7.554-20.45,11.182-27.785
		c3.378-7.449,5.63-12.414,5.63-12.414c5.165-9.195,1.704-1.053-3.297,12.298c2.369-5.418,4.489-10.639,6.33-14.611
		c7.833-13.434,10.114-16.406,9.274-13.535c-0.419,1.436-1.618,4.333-3.294,8.117c-1.667,3.788-3.923,8.408-5.854,13.603
		c-2.466,4.641-4.923,9.266-7.358,13.849c-2.335,4.637-4.374,9.364-6.544,13.962c-6.6,20.372-10.254,39.951-7.642,36.104
		c0.511-2.743,1.637-6.644,3.116-11.255c1.457-4.615,3.096-9.995,4.997-15.57c-1.469,5.346-2.189,8.822-1.164,6.478
		c0.956-2.748,3.883-11.161,8.477-24.365c0,0,0.614-1.057,1.535-2.644c1.011-1.54,2.357-3.595,3.704-5.649
		c2.681-4.083,5.361-8.167,5.361-8.167l1.029-4.725c0,0,12.902-24.757,29.257-47.309c7.967-11.433,16.911-22.136,23.526-30.205
		c6.938-7.809,11.563-13.014,11.563-13.014c12.845-15.233,25.862-29.604,40.227-43.258c14.132-13.909,29.644-27.022,46.795-40.485
		c29.718-22.727,64.99-45.977,111.45-68.967c3.288-0.924,6.578-1.834,9.874-2.699c-0.185,1.266,8.851-1.716,8.462,0.1
		c-31.48,11.513-84.26,41.526-134.9,78.929c9.013-6.523,13.2-8.772,14.194-9.224c1.285-0.456-1.835,2.198-5.297,4.869
		c0,0,5.933-4.325,14.833-10.812c4.56-3.098,9.88-6.712,15.58-10.585c5.709-3.865,12.012-7.667,18.208-11.645
		c12.539-7.714,25.279-15.143,35.024-20.384c9.646-5.425,16.267-8.695,16.267-8.695c-0.759,1.462,5.013-0.997,14.495-5.362
		c4.78-2.102,10.517-4.624,16.822-7.397c5.265-2.342,11.041-4.632,16.965-7.006c5.913-1.247,11.856-2.449,17.876-3.565
		c8.509-1.4,17.116-2.817,25.879-4.26c8.819-1.056,17.793-2.132,26.981-3.233c9.19-1.075,18.657-1.505,28.361-2.393
		c2.428-0.183,4.871-0.441,7.339-0.575c2.468-0.086,4.955-0.172,7.46-0.26c5.015-0.194,10.103-0.392,15.272-0.593
		c0,0,2.935,0.119,7.335,0.297c4.389,0.399,10.24,0.931,16.09,1.463c5.833,0.547,11.665,1.095,16.039,1.505
		c4.352,0.57,7.254,0.949,7.254,0.949C744.893,216.556,729.272,214.378,718.915,212.416z M906.148,968.4
		c5.634-5.325,13.861-13.506,21.489-21.54c3.856-3.975,7.576-7.897,10.823-11.343c3.296-3.396,6.148-6.284,8.227-8.229
		C936.261,941.708,926.078,951.07,906.148,968.4z M865.244,1036.878c-1.366,0.554-2.771,1.124-4.258,1.727
		c-0.118,0.034-0.203,0.057-0.317,0.09c1.468-0.975,3.049-2.03,4.736-3.158c1.377-0.605,2.854-1.257,4.42-1.958
		c0.966-0.429,2.005-0.868,3.032-1.306C870.378,1033.813,867.832,1035.348,865.244,1036.878z M765.854,1078.593
		c-0.374,0.077-0.73,0.151-1.121,0.231c-1.609,0.359-3.358,0.718-5.21,1.079c0.758-0.638,1.412-1.188,1.412-1.188
		c-1.837,0.629-4.05,1.356-6.537,2.146c-3.824,0.694-7.906,1.398-12.024,2.119c6.674-2.018,21.381-5.593,38.443-11.078
		c2.614-0.711,5.249-1.447,7.903-2.206C781.295,1072.74,773.67,1075.709,765.854,1078.593z M173.576,620.468
		c1.698-30.162,8.001-59.528,14.731-82.844c6.694-23.374,13.923-40.72,17.592-47.814c2.443-6.372,4.186-10.917,5.404-14.094
		c1.27-3.155,1.946-4.969,2.227-5.888c0.563-1.838-0.456-0.095-1.478,1.652c-1.953,3.533-4.289,6.924,6.753-18.135
		c0,0,1.76-3.185,3.519-6.369c1.832-3.143,3.664-6.286,3.664-6.286s1.19-3.267,2.38-6.534c1.156-3.289,2.474-6.505,2.474-6.505
		c16.835-31.796,28.446-45.931,29.828-46.602c-2.375,3.633-5.673,8.849-8.735,14.297c-1.559,2.706-3.128,5.428-4.597,7.979
		c-1.404,2.586-2.714,4.997-3.823,7.041c5.856-10.008,13.295-21.823,21.235-34.153c0.757-1.129,1.54-2.276,2.305-3.412
		c18.128-18.539,40.564-39.407,66.679-58.864c29.157-21.787,62.932-41.519,97.24-55.587c0.804-0.417,1.833-0.911,3.092-1.489
		c-0.407,0.242-0.823,0.484-1.227,0.726c-0.629,0.239-1.254,0.475-1.865,0.763c-1.167,0.661-1.767,1.064-2.08,1.33
		c0,0,1.073-0.582,2.145-1.163c0.636-0.366,1.264-0.668,1.688-0.864c-1.374,0.824-2.722,1.64-4.064,2.46
		c-0.115-0.055-0.084-0.179,0.23-0.433l-23.121,12.534c5.628-2.599,10.006-4.642,13.421-6.258c-2.324,1.442-4.62,2.864-6.88,4.239
		c-7.94,5.293-15.601,9.995-22.606,14.907c-14.126,9.646-26.524,18.736-37.943,27.741c-22.786,18.042-41.903,35.626-60.985,58.604
		c-7.588,6.485,11.582-14.508,5.078-8.537c-2.245,2.664-7.007,7.634-11.537,13.165c-4.573,5.493-9.386,11.108-12.576,14.33
		c-6.088,6.444,7.426-10.351,16.36-20.833c-3.826,4.015-7.079,8.142-10.328,11.868c-3.151,3.813-6.315,7.231-8.901,10.776
		c-5.259,7.014-10.01,13.03-13.766,18.604c-3.714,5.607-6.847,10.456-9.494,14.666c-2.713,4.161-4.49,8.019-6.168,11.137
		c-3.218,6.338-5.031,10.485-5.989,13.537c-0.858,3.111-1.023,5.035-1.121,6.811c-2.809,4.812-5.441,9.323-7.929,13.586
		c-2.297,4.367-4.321,8.556-6.297,12.523c-1.903,4-3.928,7.705-5.42,11.471c-1.51,3.757-2.96,7.366-4.374,10.884
		c-1.346,3.544-2.809,6.942-3.906,10.436c-1.062,3.504-2.113,6.976-3.175,10.477c-1.001,3.511-2.012,7.05-3.047,10.68
		c-0.783,3.694-1.584,7.479-2.418,11.417c-1.236,3.68-2.678,7.972-3.875,11.534c-1.005,3.615-1.845,6.485-2.217,7.213
		c-0.372,0.727-0.276-0.687,0.593-5.647c0.904-4.949,3.146-13.312,6.747-26.531c-2.063,7.418-6.823,22.341-10.459,41.186
		c-1.121,4.667-1.846,9.632-2.589,14.749c-0.729,5.118-1.647,10.366-2.261,15.737c-0.843,10.784-2.168,21.878-2.033,32.843
		c-0.044,2.736-0.087,5.459-0.13,8.159c-0.09,2.701-0.065,5.379,0.137,8.025c0.29,5.292,0.573,10.461,0.847,15.438
		c0.12,4.988,1.055,9.721,1.552,14.223c0.605,4.491,1.174,8.724,1.7,12.63c3.246,15.449,5.644,25.635,6.703,26.181
		c0.501,2.368,1.467,6.159,2.677,10.634c0.616,2.234,1.28,4.641,1.967,7.13c0.717,2.479,1.769,4.941,2.661,7.44
		c0.074,0.196,0.148,0.389,0.222,0.585c0.247,0.944,0.533,2.036,0.818,3.129c0.808,2.959,1.733,5.888,1.733,5.888
		c-7.292-16.084-10.68-26.228-13.069-34.179c-2.357-7.963-3.817-13.751-5.527-21.771c-5.6-19.387-1.384,4.983,7.099,28.806
		c8.45,23.782,20.786,46.561,11.037,30.672c-4.242-11.002-12.676-30.868-18.896-56.117c-3.12-12.604-5.748-26.505-7.02-41.085
		C172.864,650.744,172.686,635.53,173.576,620.468z M429.478,260.108c1.19-0.826,3.043-2.048,5.658-3.73
		c3.042-1.369,7.372-3.216,13.446-5.751c-2.068,1.34-3.436,2.397-3.828,3.041c-4.821,1.989-12.819,6.181-15.859,7.51
		C431.295,259.861,430.369,260.007,429.478,260.108z M270.174,414.316c-3.362,4.731-7.341,10.954-12.339,17.782
		c-2.56,3.38-4.914,7.205-7.515,11.126c-2.599,3.927-5.313,8.027-8.107,12.248c3.746-6.313,7.927-12.943,12.349-19.967
		C259.438,428.773,264.412,421.527,270.174,414.316z M714.336,1086.598c3.126-0.245,6.098-0.501,8.827-0.839
		c4.838-0.658,8.937-1.215,12.13-1.65c-6.682,1.023-13.09,1.94-18.183,2.585c-6.541,0.766-10.902,1.277-10.902,1.277
		C708.665,1087.57,711.403,1087.108,714.336,1086.598z M496.146,1040.573c-19.742-9.377-40.419-21.045-63.435-36.593
		c-0.462-0.339-0.854-0.63-1.292-0.951C452.431,1016.439,473.932,1029.128,496.146,1040.573z M604.564,196.13
		c22.994-7.434,47.212-13.902,63.857-17.601c1.588,0.32-0.373,1.401-9.854,3.869c-4.736,1.258-11.288,3.175-20.235,5.462
		c-7.008,2.032-15.522,4.385-25.635,7.471C609.905,195.558,607.212,195.836,604.564,196.13z M646.09,1093.499
		c14.754-0.028,29.671-0.48,44.591-1.517c-5.918,1.23-28.259,2.056-44.046,1.772c3.087,0.092,6.187,0.148,9.295,0.182
		c-3.821-0.024-7.637-0.104-11.449-0.24C645.013,1093.634,645.543,1093.57,646.09,1093.499z M962.065,236.965
		c-1.11-0.567-1.345-0.378-0.313,0.883c0,0,0.728,0.486,1.89,1.475c1.177,0.97,2.859,2.357,4.876,4.021
		c4.039,3.33,9.425,7.77,14.809,12.21c1.345,1.113,2.69,2.226,4.014,3.322c1.267,1.159,2.516,2.299,3.723,3.402
		c2.416,2.208,4.671,4.269,6.603,6.036c3.868,3.535,6.446,5.891,6.446,5.891c0.453,1.023-14.709-12.378-3.728-1.442
		c0.93,0.359,4.182,2.926,9.068,7.111c3.997,3.584,9.101,8.427,14.724,14.164c0.094,0.105,0.201,0.219,0.295,0.323
		c3.545,4.074,6.808,7.825,9.746,11.2c2.904,3.407,5.326,6.568,7.529,9.189c2.176,2.64,4.024,4.825,5.504,6.498
		c1.429,1.708,2.453,2.932,3.124,3.543c0.056,0.542-2.369-1.57-5.571-4.104c-3.176-2.557-6.849-5.728-8.81-7.801
		c0,0,1.708,1.996,4.694,5.489c3.084,3.431,7.127,8.603,11.952,14.874c2.461,3.102,5.068,6.511,7.619,10.261
		c2.596,3.72,5.419,7.605,8.201,11.717c2.67,4.191,5.429,8.522,8.233,12.922c2.838,4.397,5.32,9.092,8.029,13.68
		c9.804,17.445,18.584,35.544,24.542,50.081c0.218,0.602,0.439,1.197,0.656,1.8c1.005,3.463,2.005,6.914,2.943,10.148l0.333-2.036
		c-0.13-0.435-0.243-0.865-0.364-1.299c1.93,4.888,3.372,9.118,4.641,12.285c0.831,2.204,1.483,3.936,1.928,5.117
		c0.408,1.192,0.625,1.828,0.625,1.828c-0.837-1.716-1.427-2.322-1.867-2.221c-0.231-0.602-0.473-1.217-0.698-1.815
		c-1.469-3.789-2.891-7.463-4.265-11.009c-1.556-3.468-3.057-6.812-4.494-10.017c-2.923-6.387-5.383-12.324-7.921-17.427
		c-3.362-6.574-6.146-12.064-8.258-16.299c-0.118-0.493-0.197-0.82-0.197-0.82s-0.463-0.778-1.25-2.1
		c-0.517-1.052-0.993-2.026-1.385-2.844c-14.611-24.388-30.377-47.763-48.722-71.175c-18.708-23.101-39.917-46.257-65.901-69.2
		c3.183,2.905,5.951,5.62,7.608,7.441c1.596,1.888,2.084,2.881,0.891,2.161c-1.141-0.776-4.249-2.953-9.76-7.492
		c-5.545-4.5-13.371-11.519-25.266-20.456c5.089,2.309,2.339-0.799-5.276-7.313c-3.708-3.388-9.101-6.979-15.152-11.392
		c-3.057-2.165-6.32-4.476-9.742-6.9c-3.449-2.388-7.262-4.572-11.09-6.99c-1.102-0.679-2.273-1.4-3.393-2.091
		C924.436,211.673,944.28,223.881,962.065,236.965z M348.935,141.499c0.821-0.363,3.37-1.492,7.127-3.156
		c3.765-1.642,8.669-3.98,14.507-6.042c-0.622,0.284-1.053,0.481-1.556,0.711c-4.22,1.467-7.574,3.041-10.346,4.24
		c-2.768,1.21-4.908,2.146-6.487,2.837C349.023,141.469,348.114,141.865,348.935,141.499z M408.093,1054.557
		c-3.651-1.343-31.262-11.146-59.477-24.928c-28.432-13.369-56.73-31.487-67.018-38.792c-7.323-5.462-7.917-6.602-5.112-5.553
		c1.403,0.525,3.656,1.597,6.346,2.953c2.72,1.306,5.913,2.838,9.143,4.388c6.391,3.204,13.082,6.166,16.503,7.372
		c3.416,1.217,3.578,0.655-2.845-3.522c-1.543,0.073-19.112-9.318-26.16-13.728c-9.467-6.532-7.166-5.681-7.757-6.579
		c-0.303-0.436-1.313-1.326-4.778-3.916c-3.446-2.614-9.544-6.654-19.459-14.178c-4.293-1.212-23.948-17.308-34.697-27.165
		c-5.309-5-8.643-8.165-7.195-6.657c1.464,1.496,7.53,7.848,22.03,20.914c-9.428-7.777-16.506-13.914-22.321-19.5
		c-5.974-5.418-10.548-10.412-15.473-15.418c-9.456-10.372-19.988-21.272-37.425-44.015c4.961,7.693-4.343-1.349-17.481-18.333
		c-1.627-2.136-3.334-4.377-5.104-6.702c-1.725-2.358-3.401-4.878-5.172-7.433c-1.753-2.571-3.551-5.207-5.377-7.886
		c-1.655-2.786-3.338-5.616-5.032-8.468c-3.344-5.75-6.738-11.587-10.075-17.324c-3.142-5.845-5.724-11.847-8.39-17.444
		c1.792,2.396-1.931-8.108-3.746-13.152c-2.224-5.906-4.209-11.711-6.231-17.325c-0.999-2.812-1.985-5.586-2.957-8.324
		c-0.998-2.73-1.95-5.435-2.63-8.19c-1.504-5.462-2.971-10.789-4.407-16.001c-1.359-5.229-3.033-10.259-3.886-15.386
		c-1.941-10.19-4.21-19.922-5.678-29.56c-1.238-9.673-2.448-19.125-3.65-28.525c-0.59-9.454-1.176-18.855-1.77-28.372
		c-0.31-9.523-0.048-19.179-0.117-29.105c-0.142-4.968,0.362-9.989,0.656-15.107c0.325-5.117,0.656-10.326,0.995-15.649
		c0.185-5.336,1.009-10.726,1.694-16.265c0.695-5.537,1.407-11.207,2.137-17.033c0.328-2.14,1.272-6.497,2.457-11.528
		c1.146-5.03,2.449-10.751,3.559-15.622c1.095-4.868,2.128-8.85,2.864-10.387c0.671-1.553,0.659-0.748-0.177,3.981
		c1.409-6.576,2.762-12.89,4.517-21.081c0.463-2.047,0.953-4.211,1.475-6.527c0.495-2.325,1.111-4.777,1.972-7.355
		c1.651-5.179,3.53-11.079,5.724-17.963c1.238-3.267,2.232-5.89,3.012-7.949c0.869-2.023,1.6-3.45,2.067-4.418
		c0.961-1.925,1.094-1.93,0.664-0.625c-1.041,2.544-3.635,10.586-6.302,19.038c-5.853,16.762-9.859,35.712-3.325,15.528
		c-0.081-0.966,1.209-5.899,3.377-13.384c1.109-3.739,2.411-8.119,3.848-12.961c1.358-4.877,3.627-9.935,5.613-15.414
		c2.088-5.445,4.28-11.163,6.509-16.977c2.621-5.649,5.285-11.39,7.912-17.053c4.938-11.503,11.162-21.947,16.012-31.023
		c-2.076,2.446-6.105,8.826-11.288,17.587c-2.44,4.461-4.853,9.682-7.578,15.236c-1.337,2.789-2.722,5.678-4.143,8.642
		c-1.414,2.966-2.919,5.982-4.081,9.212c-4.924,12.789-10.589,26.246-14.232,39.519c-1.946,6.586-4.121,12.879-5.618,18.921
		c-1.419,6.06-2.741,11.703-3.916,16.719c-0.795-0.149-0.476-4.651,0.825-12.865c0.347-2.052,0.734-4.338,1.158-6.846
		c0.619-2.461,1.293-5.14,2.019-8.027c1.556-5.77,3.337-12.369,5.319-19.715c9.064-28.976,25.353-69.257,53.175-110.635
		c1.355-2.068,2.645-4.034,3.871-5.903c1.276-1.834,2.607-3.487,3.806-5.098c2.44-3.194,4.613-6.04,6.547-8.571
		c3.925-5.016,6.876-8.789,9.074-11.6c4.752-5.324,6.484-6.792,6.816-6.772c0.692,0.067-3.945,6.277,0.389,0.986
		c6.176-6.885,11.68-13.485,17.172-19.295c5.615-5.696,10.818-10.974,15.664-15.889c4.712-5.058,9.582-9.207,13.955-13.258
		c4.385-4.042,8.452-7.791,12.257-11.298c15.788-13.354,27.135-23.261,38.684-31.612c2.846-2.15,5.654-4.27,8.483-6.407
		c2.817-2.162,5.691-4.29,8.809-6.241c6.149-4.035,12.691-8.256,20.164-12.955c7.535-4.589,16.353-9.04,26.505-14.485
		c5.024-2.831,10.773-5.133,16.827-7.917c6.115-2.652,12.566-5.764,19.763-8.564c46.295-16.022,3.557,3.001,14.218,0.397
		c-14.932,5.698-27.55,12.044-39.298,17.282c-1.464,0.666-2.91,1.323-4.339,1.974c-1.392,0.725-2.769,1.442-4.129,2.151
		c-2.726,1.411-5.391,2.79-8.004,4.142c-5.241,2.683-10.271,5.259-15.158,7.762c-9.496,5.526-18.437,10.728-27.345,15.911
		c-8.63,5.633-17.099,11.467-26.015,17.645c0,0,11.11-7.408,22.22-14.816c5.526-3.739,11.456-6.846,15.72-9.454
		c4.316-2.526,7.193-4.21,7.193-4.21c-4.271,2.753-9.715,6.263-15.782,10.174c-3.093,1.86-6.145,4.12-9.317,6.387
		c-3.177,2.256-6.439,4.572-9.72,6.902c-3.291,2.312-6.6,4.637-9.862,6.928c-3.141,2.454-6.236,4.872-9.22,7.204
		c-5.973,4.659-11.539,8.928-16.201,12.399c8.362-5.826,24.289-18.928,46.848-33.716c22.668-14.505,51.332-31.719,84.122-45.634
		c32.637-14.152,68.788-25.868,104.025-33.359c4.415-0.886,8.802-1.767,13.154-2.64c4.352-0.866,8.653-1.816,12.989-2.307
		c8.631-1.188,17.088-2.352,25.306-3.483c8.256-0.78,16.3-1.267,24.022-1.863c7.716-0.745,15.166-0.717,22.238-0.77
		c5.024-0.277,10.96-0.605,16.782-0.926c5.826-0.133,11.544-0.012,16.123-0.076c9.157-0.062,13.771-0.292,5.55-0.981
		c0,0-8.98-0.229-17.962-0.458c-4.489-0.131-8.98,0.211-12.347,0.257c-3.367,0.108-5.611,0.179-5.611,0.179
		c-16.54-0.429,0.336-1.422,15.744-2.233c15.388,0.051,29.277,0.164,6.44-0.989c12.105,0.216,24.634-0.152,37.582,1.008
		c6.487,0.439,13.098,0.887,19.846,1.343c6.713,0.843,13.563,1.704,20.568,2.584c3.504,0.456,7.044,0.916,10.626,1.382
		c3.548,0.667,7.137,1.341,10.767,2.024c7.25,1.419,14.706,2.722,22.265,4.409c7.502,1.932,15.185,3.911,23.064,5.94
		c1.967,0.518,3.946,1.039,5.937,1.564c1.96,0.629,3.934,1.262,5.919,1.899c3.965,1.293,7.979,2.602,12.045,3.927l10.97,5.785
		c-2.332-1.052-11.918-4.37-23.275-8.092c-6.307-2.245-13.377-3.846-19.919-5.571c-6.562-1.652-12.673-3.167-17.368-4.138
		c6.956,1.469,16.719,4.086,27.928,7.167c5.619,1.492,11.422,3.721,17.505,5.695c6.04,2.109,12.352,4.033,18.528,6.407
		c24.767,9.361,49.258,20.064,63.901,25.527c0,0-2.639-1.409-6.599-3.522c-4.056-1.917-9.465-4.473-14.873-7.028
		c-5.426-2.543-10.852-5.085-14.922-6.992c-4.157-1.705-6.927-2.842-6.927-2.842c39.183,13.521,85.001,34.694,127.888,63.206
		c-1.089-0.566-2.166-1.126-3.272-1.701c-5.698-3.113-11.76-6.09-18.115-8.933c-4.727-2.905-10.204-6.424-16.48-9.757
		c-7.128-3.777-14.87-7.878-22.603-11.975c1.271,1.593,8.409,5.845,18.846,11.666c3.096,1.637,6.41,3.579,9.881,5.673
		c-4.944-1.998-10.044-3.916-15.282-5.753l-1.993-1.575c0,0-4.202-1.889-8.406-3.778c-2.097-0.943-4.194-1.885-5.767-2.592
		c-1.56-0.73-2.65-1.116-2.65-1.116s1.681,0.841,4.113,2.271c2.14,1.222,4.909,2.803,7.751,4.426
		c-1.503-0.495-2.995-0.997-4.518-1.479c-2.579-0.775-5.178-1.556-7.798-2.343c-2.608-0.828-5.26-1.568-7.974-2.143
		c-5.401-1.249-10.879-2.515-16.421-3.797c-0.821-0.141-1.667-0.285-2.491-0.426c-5.347-2.27-10.185-4.478-14.5-6.217
		c7.555,3.1,2.399,1.517-9.195-1.786c-12.334-3.852-32.253-9.12-51.708-12.748c-4.875-0.845-9.702-1.682-14.351-2.488
		c-2.327-0.385-4.601-0.825-6.83-1.135c-2.239-0.246-4.417-0.485-6.518-0.716c-8.403-0.913-15.568-1.646-20.451-2.057
		c-4.902-0.203-7.521-0.089-6.802,0.226c0.712,0.39,4.786,0.731,13.129,2.308c-6.168-0.911-10.876-1.246-14.43-1.519
		c-3.552-0.304-5.95-0.551-7.547-0.758c-3.195-0.416-3.185-0.681-2.796-0.947c0.389-0.266,1.158-0.533-0.536-0.955
		c-0.848-0.211-2.311-0.462-4.749-0.77c-2.437-0.332-5.847-0.716-10.602-0.804c-7.458,0.076-15.01,0.154-22.653,0.232
		c-7.624,0.477-15.338,0.959-23.136,1.448l-5.861,0.378l-5.866,0.693c-3.921,0.458-7.863,0.92-11.823,1.383
		c-3.955,0.508-7.957,0.814-11.928,1.486c-3.968,0.688-7.955,1.38-11.962,2.075c-32.031,5.524-64.79,14.284-97.021,27.102
		c-32.26,12.71-63.676,30.122-93.13,51.054c-29.328,21.13-56.603,45.932-81.116,73.399c-1.022,2.134,16.198-15.398-4.149,8.631
		c0,0-3.301,3.546-8.251,8.865c-2.513,2.633-5.305,5.823-8.302,9.245c-3.001,3.417-6.242,7.037-9.3,10.806
		c-7.015,8.241-13.659,16.785-18.175,22.744c-3.079,3.197-6.165,6.401-9.23,9.584c-10.632,11.086-20.284,22.898-29.04,34.779
		c0.566-1.024,1.703-3.238,7.387-10.722c-20.563,26.117-40.766,56.855-56.125,90.562c-7.691,16.825-14.174,34.343-19.052,52.063
		c-4.869,17.712-8.174,35.637-9.814,52.99c-3.325,34.76-0.877,66.986,3.12,92.962c4.044,26.026,9.598,45.959,14.047,57.297
		c0,0,5.433,21.059,12.154,41.745c3.364,10.342,6.991,20.596,9.887,28.222c1.468,3.805,2.691,6.976,3.548,9.195
		c0.899,2.203,1.413,3.462,1.413,3.462c-9.793-26.383-12.906-39.04-13.941-43.332c-0.922-4.333,0.576-0.441,2.807,5.368
		c4.397,11.657,12.097,30.783,5.215,8.854c6.908,20.846,16.942,47.422,23.494,62.249c3.217,7.433,5.161,12.095,4.778,11.867
		c-0.421-0.207-3.307-5.251-9.043-17.547l-3.149-7.887c-5.452-8.58,6.956,24.304,26.427,56.149
		c9.622,15.938,20.895,31.524,30.1,42.519c4.372,5.693,8.498,9.995,11.019,13.203c2.565,3.172,3.926,4.89,3.451,4.815
		c38.612,40.5,85.33,71.654,134.382,95.778c5.944,2.902,11.923,5.71,17.931,8.438
		C417.781,1056.14,413.756,1055.845,408.093,1054.557z M627.823,1096.751c0.089-0.029,0.076-0.031-0.092-0.004
		c-18.226-0.806-31.849-2.73-42.669-4.559c-4.22-0.748-8.013-1.487-11.528-2.225c16.698,1.595,34.039,2.773,51.821,3.316
		c2.989,0.08,6.012,0.098,9.022,0.141c-1.604,0.223-3.125,0.434-4.478,0.621c-8.871,1.357-12.414,1.738-10.908,1.883
		c1.516,0.25,8.021-0.366,19.184-1.528c1.322-0.151,2.724-0.289,4.179-0.443c3.75,0.3,4.208,0.44,3.536,0.752
		c-1.772,0.702-11.665,1.585,11.941,2.284C646.594,1097.269,636.674,1097.14,627.823,1096.751z M710.472,1091.658
		c0.29-0.027,0.581-0.055,0.871-0.083c-0.623,0.107-1.259,0.212-1.877,0.322C709.466,1091.897,709.834,1091.81,710.472,1091.658z
		 M1076.897,866.528c-1.801,3.516-3.692,6.747-5.552,9.825c-1.814,3.11-3.552,6.091-5.239,8.983
		c-3.476,5.725-6.966,10.971-10.312,16.331c-3.549,5.209-7.238,10.331-11.131,15.818c-4.191,5.238-8.5,10.935-13.737,16.897
		c-10.444,11.94-23.924,25.631-43.927,41.638c4.667-4.111,9.54-10.179,8.358-10.933c-1.212-0.806-8.086,4.087-28.982,19.026
		c-8.844,7.795-28.809,25.141-58.872,42.965c-16.635,10.091-36.526,20.065-58.581,28.863c0.846-0.452,1.728-0.922,2.683-1.433
		c5.891-3.387,13.785-7.855,21.478-12.638c7.667-4.827,15.33-9.66,20.875-13.584c1.471-1.007,2.804-1.919,3.983-2.727
		c4.631-2.473,9.08-4.935,13.29-7.369c-4.532,3.669-13.316,10.229-28.487,20.085c6.048-3.219,13.285-8.326,21.093-13.671
		c4.058-3.034,8.257-6.165,12.369-9.345c2.259-1.352,4.467-2.697,6.565-4.022c-1.5,0.766-2.849,1.455-4.132,2.111
		c2.71-2.133,5.378-4.279,7.883-6.439c7.154-5.869,13.409-11.538,17.944-15.794c4.587-4.197,7.403-7.038,7.561-7.418
		c4.799-4.107,8.88-7.601,12.322-10.546c3.389-3.004,6.148-5.45,8.351-7.404c4.426-3.89,6.706-5.734,7.366-6.145
		c1.379-0.76-3.591,4.359-10.202,10.962c-6.61,6.599-15.132,14.397-20.507,19.292c-5.442,4.822-7.649,6.846-1.65,1.878
		c0,0,2.016-1.71,5.038-4.275c2.962-2.632,6.912-6.142,10.861-9.651c3.994-3.461,7.753-7.173,10.669-9.851
		c2.888-2.709,4.814-4.514,4.814-4.514l-7.2,6.237c3.025-3.025,5.705-5.706,8.167-8.167c2.379-2.543,4.546-4.859,6.622-7.077
		c4.104-4.478,7.949-8.446,12.23-13.209c4.293-4.747,9.171-10.14,15.58-17.227c6.18-7.292,14.247-15.958,23.96-28.091
		c6.42-7.449,10.249-12.302,12.787-15.374c2.553-3.06,3.788-4.358,4.562-5.07c1.54-1.43,1.265-0.486,5.96-6.673
		c0.053,0.096,0.847-0.921,2.941-3.896c2.056-3,5.439-7.935,10.719-15.641c0,0,3.082-4.838,7.704-12.095
		c4.789-7.152,10.4-17.178,16.116-27.141c2.885-4.965,5.312-10.191,7.825-14.956c0.254-0.508,0.505-0.992,0.76-1.49
		c-3.094,9.611-6.693,19.479-10.349,28.247c-2.302,5.183-4.458,10.035-6.342,14.273c-1.879,4.24-3.82,7.712-5.082,10.418
		c0,0,1.137-2.086,2.845-5.215c1.812-3.082,3.707-7.439,5.794-11.714c2.051-4.29,4.14-8.572,5.471-11.889
		c1.392-3.291,2.321-5.485,2.321-5.485C1092.988,835.731,1084.676,852.796,1076.897,866.528z"/>
	<path fill="#242424" d="M747.416,169.016c-0.505,0.001-0.982,0.013-1.481,0.016c-1.421,0.06-2.825,0.127-4.211,0.203
		C743.506,169.158,745.377,169.084,747.416,169.016z"/>
	<path fill="#242424" d="M1130.675,647.01c-0.035-1.457-0.068-2.262-0.068-2.262C1130.616,645.585,1130.639,646.336,1130.675,647.01
		z"/>
	<path fill="#242424" d="M1130.861,611.264c-0.066,1.276-0.1,2.844-0.085,4.783C1130.811,614.39,1130.836,612.828,1130.861,611.264z
		"/>
	<path fill="#242424" d="M379.802,310.933c-1.99,1.44-4.207,3.082-6.686,4.966C375.337,314.223,377.57,312.581,379.802,310.933z"/>
	<path fill="#242424" d="M1074.656,687.827c0.739-5.808,1.193-9.385,1.193-9.385
		C1075.349,682.107,1074.953,685.256,1074.656,687.827z"/>
	<path fill="#242424" d="M814.539,157.709c-0.545-0.224-1.145-0.468-1.826-0.741C813.297,157.19,813.936,157.466,814.539,157.709z"
		/>
	<path fill="#242424" d="M197.393,585.493c-0.046,0.273-0.101,0.595-0.153,0.902c0.226-1.14,0.46-2.332,0.711-3.635
		C197.951,582.76,197.657,583.738,197.393,585.493z"/>
	<path fill="#242424" d="M328.029,295.178c0.025-0.017,0.05-0.034,0.076-0.051c1.458-1.503,2.326-2.396,2.326-2.396
		C329.78,293.374,328.963,294.206,328.029,295.178z"/>
	<path fill="#242424" d="M741.724,169.236c-10.67,0.466-17.014,1.124-21.766,2.092C725.904,170.405,733.467,169.686,741.724,169.236
		z"/>
	<path fill="#242424" d="M186.177,491.593c-0.593,1.487-0.906,2.318-0.906,2.318C185.573,493.109,185.875,492.358,186.177,491.593z"
		/>
	<path fill="#242424" d="M209.327,537.67c-1.716,4.054-2.17,5.185-2.834,6.067C205.249,549.732,205.373,549.876,209.327,537.67z"/>
	<path fill="#242424" d="M281.697,980.853c6.069,4.24,11.051,7.153,14.867,9.741c3.831,2.565,6.747,4.399,9.068,5.882
		C306.57,996.46,300.727,993.08,281.697,980.853z"/>
	<path fill="#242424" d="M819.361,138.077c3.399,1.412,5.595,2.324,5.595,2.324C822.385,139.302,820.586,138.558,819.361,138.077z"
		/>
	<path fill="#242424" d="M820.179,139.528c-0.643-0.658-6.1-3.523-0.818-1.451c-4.214-1.75-10.28-4.27-16.354-6.793
		c-11.182-4.021-22.364-8.042-22.364-8.042c10.783,3.97,18.09,6.698,23.984,9.116C810.413,135.027,814.911,137.1,820.179,139.528z"
		/>
	<path fill="#242424" d="M510.015,94.725c2.445-0.358,5.529-0.81,9.337-1.368c3.831-0.368,8.392-0.806,13.766-1.322
		c15.749-0.914,9.736-2.805,18.697-2.916c8.779-1.563-17.568,0.834-35.116,3.445c-8.738,1.617-15.319,2.958-14.386,3.058
		C502.779,95.673,505.122,95.414,510.015,94.725z"/>
	<path fill="#242424" d="M647.329,101.406c4.854,0.758,11.325,1.768,17.796,2.778c6.455,1.084,12.967,1.837,17.742,3.01
		c4.802,1.018,8.005,1.696,8.005,1.696c-0.715-0.472,5.845,0.655,13.892,2.129c-7.909-1.622-16.008-3.284-23.688-4.859
		c-7.708-1.425-15.074-2.343-21.362-3.335c-12.573-2.076-21.119-2.546-20.53-2.236C639.184,100.59,642.443,100.917,647.329,101.406z
		"/>
	<path fill="#242424" d="M727.967,116.684c7.051,1.78,13.245,3.171,17.72,4.55c-4.305-1.494-11.291-3.147-18.778-5.041
		c-3.748-0.932-7.629-1.897-11.392-2.833c-1.882-0.461-3.735-0.915-5.528-1.354c-1.814-0.342-3.566-0.672-5.225-0.985
		c4.14,0.754,8.156,1.819,12.038,2.831C720.691,114.838,724.442,115.789,727.967,116.684z"/>
	<path fill="#242424" d="M811.103,147.229c4.485,1.984,7.477,3.307,7.477,3.307l-14.035-6.47c0,0-2.12-0.908-5.3-2.27
		c-3.239-1.215-7.557-2.836-11.875-4.457c-8.639-3.241-17.277-6.481-17.277-6.481s12.224,4.678,24.449,9.355
		C800.709,142.407,806.586,145.319,811.103,147.229z"/>
	<path fill="#242424" d="M145.972,316.538c0,0-7.84,11.975-15.68,23.95c-3.79,6.064-7.081,12.433-9.769,17.072
		c-2.623,4.678-4.371,7.797-4.371,7.797c-1.16,2.684,0.288,0.692,3.314-4.285c1.478-2.508,3.386-5.744,5.599-9.499
		c2.226-3.745,4.467-8.185,7.499-12.556c3.641-5.794,8.281-13.178,11.43-18.188C147.056,315.75,148.861,313.21,145.972,316.538z"/>
	<path fill="#242424" d="M261.374,208.284c5.355-3.993,10.709-7.985,10.709-7.985c-6.398,4.226-9.934,6.323-12.681,8.084
		c-2.722,1.801-4.75,3.143-8.366,5.534l0.098,2.945C251.134,216.862,256.254,212.573,261.374,208.284z"/>
	<path fill="#242424" d="M165.066,302.52c4.872-6.812,5.386-7.92-10.681,12.53c-0.363,0.607-1.393,2.097-2.832,4.126
		c-1.322,2.112-3.004,4.798-4.82,7.697c-3.623,5.789-7.779,12.427-10.655,17.022c-2.845,4.605-3.973,7.427-2.553,4.997
		c1.306-2.501,6.402-9.491,16.214-24.407C150.763,321.714,160.26,309.385,165.066,302.52z"/>
	<path fill="#242424" d="M342.5,1021.906l0.232,4.435c0,0,3.236,0.447,6.497,0.789c3.24,0.361,6.481,0.723,6.481,0.723
		s-3.315-1.46-6.629-2.92C345.745,1023.515,342.5,1021.906,342.5,1021.906z"/>
	<path fill="#242424" d="M1020.006,934.348c-1.849,2.534-2.559,5.199-25.344,24.587c-2.788,2.714-1.836,2.121,0.992-0.13
		c2.843-2.231,7.555-6.123,11.992-10.304c9.175-8.044,17.509-16.903,12.306-10.818c3.378-3.702,6.642-7.098,9.54-10.369
		c2.832-3.327,5.445-6.398,7.813-9.181c2.414-2.745,4.462-5.3,6.166-7.598c1.725-2.278,3.199-4.225,4.398-5.81
		c4.734-6.39,4.72-7.177-2-0.848C1024.719,929.07,1021.591,931.547,1020.006,934.348z"/>
	<path fill="#242424" d="M1005.647,952.342c8.317-8.136,12.135-12.047,14.305-14.659
		C1015.702,942.509,1010.691,947.126,1005.647,952.342z"/>
	<path fill="#242424" d="M821.712,1024.48c-3.67,1.88-7.406,3.627-10.172,4.995c-2.767,1.37-4.644,2.214-4.644,2.214l-2.606,1.958
		c3.094-1.11,6.784-2.907,11.898-5.565c5.151-2.59,11.573-6.311,20.057-11.442c0,0-1.771,1.073-4.506,2.528
		C829.005,1020.616,825.359,1022.548,821.712,1024.48z"/>
	<path fill="#242424" d="M1069.276,572.255c0,0-0.042-1.165-0.106-2.913c-0.09-1.745-0.079-4.094-0.331-6.409
		c-0.399-4.656-0.797-9.312-0.797-9.312l-0.391,8.874c0,0,0.554,2.418,0.876,4.871
		C1068.902,569.811,1069.276,572.255,1069.276,572.255z"/>
	<path fill="#242424" d="M818.354,234.8c4.654,1.504,9.583,3.144,14.784,4.933C828.438,237.996,823.466,236.352,818.354,234.8z"/>
	<path fill="#242424" d="M818.354,234.8c-13.255-4.283-24.178-7.411-32.022-9.342c-10.558-2.752-15.447-3.453-13.084-1.651
		C787.529,226.594,803.546,230.302,818.354,234.8z"/>
</g>
</svg>
