<?xml version="1.0" encoding="utf-8"?>
<!--Designed by Vexels.com - 2018 All Rights Reserved - https://vexels.com/terms-and-conditions/-->
<svg version="1.1" id="Layer_1" xmlns="http://www.w3.org/2000/svg" xmlns:xlink="http://www.w3.org/1999/xlink" x="0px" y="0px"
	 viewBox="0 0 1200 1200" enable-background="new 0 0 1200 1200" xml:space="preserve">
<path fill="#2C2C2C" d="M895.884,851.694c5.876,12.665,9.936,26.629,17.924,37.781c48.981,68.376,99.091,135.943,148.239,204.202
	c11.11,15.43,24.691,30.801,20.032,56.324c-13.002-10.78-24.305-19.104-40.562-13.251c-3.656,1.317-12.393-7.452-16.843-13.11
	c-13.429-17.079-26.144-34.739-38.697-52.483c-41.487-58.642-82.76-117.434-124.197-176.113c-2.557-3.623-5.809-6.755-12.789-14.762
	c0.565,9.543-0.498,14.03,1.197,16.87c30.508,51.124,60.701,102.459,92.466,152.8c11.471,18.18,26.433,34.267,40.692,50.53
	c6.721,7.665,13.814,14.387,4.697,23.932c-9.474,9.919-16.915,1.2-24.407-4.13c-0.761-0.542-1.559-1.186-2.027-1.969
	c-19.254-32.174-55.171-44.305-81.582-67.861c-0.705-0.629-1.297-1.756-2.07-1.886c-38.59-6.466-48.263-43.606-70.958-66.896
	c-9.831-10.088-19.042-20.788-29.004-30.738c-16.647-16.626-33.423-31.961-40.271-56.773c-4.293-15.558-17.199-29.07-27.469-42.567
	c-14.294-18.786-29.736-36.7-44.695-54.98c-1.198-1.462-2.191-3.461-3.756-4.201c-40.273-19.019-54.829-60.311-79.885-92.435
	c-10.947-14.033-20.346-29.274-32.478-46.92c-8.97,8.457-17.061,14.508-23.204,22.129c-42.661,52.926-85.852,105.47-126.877,159.649
	c-18.07,23.866-31.469,51.268-46.999,77.058c-2.415,4.011-4.001,10.264-7.474,11.616c-25.078,9.757-37.128,33.895-56.512,49.803
	c-2.917,2.395-5.453,6.212-8.73,6.988c-4.943,1.172-11.534,2.067-15.291-0.302c-3.717-2.344-7.042-9.145-6.535-13.528
	c0.953-8.241,2.91-17.581,7.759-23.942c18.843-24.713,24.612-57.416,48.688-78.758c0.695-0.616,1.314-1.411,1.723-2.243
	c14.755-29.966,29.48-59.947,42.333-92.25c-6.772,7.887-14.157,15.334-20.198,23.746c-15.967,22.236-29.792,46.223-47.481,66.94
	c-13.237,15.502-30.128,28.579-47.31,39.797c-13.933,9.096-20.639,4.207-26.293-14.186c35.87-5.343,43.422-38.423,59.875-63.94
	c-2.957,1.291-7.42,1.762-8.64,4c-13.751,25.229-39.38,37.239-59.998,54.797c-9.305,7.923-17.973,9.895-27.505-2.529
	c23.433-36.077,47.08-72.485,70.727-108.893c-1.381-0.962-2.762-1.923-4.143-2.885c-28.071,34.005-55.886,68.226-84.379,101.873
	c-7.78,9.186-17.091,17.326-26.755,24.53c-3.459,2.579-10.032,0.977-19.241,1.524c4.644-8.7,6.824-14.522,10.424-19.267
	c51.989-68.533,107.712-134.585,154.945-206.239c27.497-41.716,56.496-82.216,85.117-123.049
	c15.719-22.427,31.463-44.958,48.943-65.991c13.644-16.417,13.392-29.905,2.183-47.926
	c-38.432-61.784-75.363-124.507-112.579-187.043c-13.048-21.926-25.324-44.313-37.846-66.549
	c-18.969-33.68-18.094-37.391,14.948-59.582c-1.944-5.355-5.187-11.068-5.859-17.069c-0.649-5.794-0.611-14.954,2.691-17.069
	c4.098-2.625,12.582-1.009,17.824,1.542c4.621,2.25,7.392,8.304,13.705,16.001c-1.855-14.842-0.863-26.39,18.676-28.5
	c17.09,32.782,34.548,66.858,52.554,100.642c17.76,33.328,35.206,66.875,54.39,99.38c19.29,32.683,37.416,66.309,61.065,96.151
	c1.609-0.932,3.218-1.864,4.828-2.797c-53.659-103.374-107.318-206.747-160.852-309.88c19.206-12.036,19.206-12.036,47.811,32.943
	c25.771-1.802,25.771-1.802,51.603,34.427c4.225-2.69,8.524-5.428,12.685-8.077c21.289,8.03,30.64,25.585,40.246,44.488
	c21.816,42.935,45.619,84.862,68.794,127.102c1.675,3.053,4.803,5.308,9.585,10.43c39.94-40.202,79.286-79.234,117.97-118.91
	c37.687-38.653,71.936-80.948,118.433-110.479c-8.525,28.31-33.238,45.627-45.545,71.329c28.694-20.554,48.188-52.213,81.674-66.549
	c8.231,11.008,0.542,17.851-4.098,23.905c-9.164,11.957-20.255,22.423-29.619,34.242c-7.997,10.096-14.733,21.194-21.951,31.901
	c-4.21,6.247-7.651,13.123-12.494,18.817c-47.095,55.367-94.433,110.528-141.64,165.799c-4.834,5.661-9.27,11.662-11.773,19.487
	c47.515-46.201,94.915-92.519,142.577-138.567c47.074-45.481,93.437-91.806,148.102-129.184
	c-10.886,28.756-37.739,44.247-55.124,67.561c-17.245,23.127-40.758,41.578-59.536,65.525c3.871-2.122,8.196-3.698,11.53-6.467
	c10.725-8.909,19.268-20.393,35.494-21.329c5.32-0.306,10.086-7.889,15.355-11.81c21.905-16.302,43.668-32.82,66.077-48.405
	c4.422-3.076,11.466-2.383,22.163-4.297c-5.118,10.109-7.114,16.155-10.81,20.869c-5.809,7.408-12.507,14.182-19.281,20.757
	c-20.862,20.251-42.213,40.094-46.664,70.553c5.639-2.619,12.608-5.857,26.098-12.124c-4.684,12.422-5.714,19.862-9.725,24.95
	c-15.172,19.248-30.239,38.773-47.295,56.299c-44.117,45.336-89.361,89.576-133.917,134.488
	c-6.509,6.561-11.722,14.407-18.654,23.053c15.363,24.014,30.075,46.96,44.74,69.938c42.206,66.134,84.026,132.518,126.711,198.342
	c29.313,45.202,59.738,89.685,89.837,134.376c8.368,12.423,14.373,24.376-1.63,38.588c-18.676-23.664-36.484-46.229-54.293-68.797
	c-14.516-23.118-29.004-46.253-43.555-69.346c-38.738-61.475-77.46-122.959-116.347-184.339c-2.972-4.692-7.184-8.597-10.82-12.869
	c35.361,65.564,72.366,129.173,112.573,190.688C854.718,802.58,868.162,832.946,895.884,851.694z M777.2,841.577
	c-1.579,1.041-3.157,2.082-4.737,3.123c33.074,49.233,66.147,98.466,99.22,147.7C845.992,938.342,815.946,887.119,777.2,841.577z
	 M660.929,371.257c1.259,1.376,2.517,2.752,3.776,4.127c7.761-8.68,15.522-17.359,23.284-26.038
	c-1.064-1.029-2.127-2.057-3.191-3.086C676.842,354.592,668.886,362.924,660.929,371.257z M719.032,310.822
	c0.958,0.876,1.916,1.753,2.875,2.628c3.613-3.88,7.225-7.761,10.837-11.64c-1.086-0.991-2.173-1.981-3.259-2.972
	C726,302.833,722.516,306.827,719.032,310.822z"/>
</svg>
